<svg width="24" height="24" viewBox="0 0 24 24" fill="none" xmlns="http://www.w3.org/2000/svg">
<path d="M23.8359 21.9797L18.1453 16.2891C18.0375 16.1813 17.8969 16.125 17.7469 16.125H17.1281C18.6047 14.4141 19.5 12.1875 19.5 9.75C19.5 4.36406 15.1359 0 9.75 0C4.36406 0 0 4.36406 0 9.75C0 15.1359 4.36406 19.5 9.75 19.5C12.1875 19.5 14.4141 18.6047 16.125 17.1281V17.7469C16.125 17.8969 16.1859 18.0375 16.2891 18.1453L21.9797 23.8359C22.2 24.0562 22.5562 24.0562 22.7766 23.8359L23.8359 22.7766C24.0562 22.5562 24.0562 22.2 23.8359 21.9797ZM9.75 17.25C5.60625 17.25 2.25 13.8938 2.25 9.75C2.25 5.60625 5.60625 2.25 9.75 2.25C13.8938 2.25 17.25 5.60625 17.25 9.75C17.25 13.8938 13.8938 17.25 9.75 17.25Z" fill="black"/>
</svg>
