<svg width="155" height="20" viewBox="0 0 155 20" fill="none" xmlns="http://www.w3.org/2000/svg">
<g clip-path="url(#clip0_972_230)">
<path d="M0.694427 19.7197C0.509047 19.7199 0.33018 19.6514 0.19244 19.5273C0.0676707 19.39 -0.00100273 19.2108 1.15877e-05 19.0253V0.970508C-0.00352361 0.878799 0.011722 0.787336 0.0448125 0.701732C0.077903 0.616129 0.12814 0.538191 0.19244 0.472704C0.329768 0.347458 0.508567 0.277429 0.694427 0.276093H7.91467C10.6366 0.276093 12.7477 0.924493 14.2481 2.22129C15.7485 3.51809 16.5363 5.39776 16.6116 7.86028C16.6116 8.39573 16.6367 9.11525 16.6367 9.99791C16.6367 10.8806 16.6367 11.5917 16.6116 12.1104C16.514 14.6845 15.7443 16.6004 14.3025 17.8582C12.8606 19.1159 10.7788 19.7365 8.0569 19.7197H0.694427ZM7.91467 15.7206C9.13618 15.7206 10.0342 15.4333 10.6087 14.8588C11.186 14.269 11.4913 13.3319 11.5248 12.0561C11.5624 11.5164 11.5834 10.822 11.5834 9.96444C11.5834 9.10688 11.5624 8.42502 11.5248 7.9063C11.4913 6.66806 11.1581 5.75193 10.525 5.15792C9.91425 4.5639 8.99813 4.27107 7.77663 4.27107H5.01988V15.7206H7.91467ZM27.8268 20C25.2165 20 23.1611 19.36 21.6607 18.0799C20.1604 16.7998 19.3642 14.9216 19.2721 12.4451C19.2428 11.9055 19.2428 11.1106 19.2428 10.0397C19.2428 8.96883 19.2428 8.15729 19.2721 7.62184C19.3642 5.18999 20.1687 3.3159 21.6859 1.99958C23.203 0.68326 25.25 0.0167329 27.8268 0C30.3842 0 32.4298 0.666527 33.9636 1.99958C35.4975 3.33264 36.3076 5.2123 36.3941 7.63857C36.4317 8.71366 36.4485 9.51684 36.4485 10.0565C36.4485 10.5961 36.4485 11.37 36.3941 12.4451C36.302 14.9244 35.5058 16.8026 34.0055 18.0799C32.5051 19.3572 30.4455 19.9972 27.8268 20ZM27.8268 15.9967C28.2713 16.0193 28.7156 15.9495 29.1317 15.7919C29.5479 15.6342 29.9269 15.392 30.2447 15.0805C30.8555 14.4698 31.179 13.5355 31.2152 12.2778C31.2529 11.2027 31.2696 10.4455 31.2696 9.99791C31.2696 9.5503 31.2696 8.74294 31.2152 7.72223C31.1762 6.46169 30.8527 5.52604 30.2447 4.91529C29.925 4.60651 29.5457 4.36604 29.13 4.20855C28.7143 4.05105 28.2709 3.97981 27.8268 3.99916C27.3827 3.97956 26.9392 4.05069 26.5235 4.2082C26.1078 4.36571 25.7285 4.60631 25.4089 4.91529C24.8191 5.52604 24.4928 6.46308 24.4384 7.72223C24.4175 8.24095 24.4091 8.99812 24.4091 9.99791C24.4091 10.9977 24.4091 11.7381 24.4384 12.2778C24.4928 13.5327 24.8191 14.4698 25.4089 15.0805C25.7265 15.3924 26.1054 15.6349 26.5216 15.7926C26.9379 15.9503 27.3823 16.0198 27.8268 15.9967ZM40.3514 19.7197C40.166 19.7199 39.9872 19.6514 39.8494 19.5273C39.7246 19.39 39.656 19.2108 39.657 19.0253V0.970508C39.6535 0.878799 39.6687 0.787336 39.7018 0.701732C39.7349 0.616129 39.7851 0.538191 39.8494 0.472704C39.9867 0.347458 40.1655 0.277429 40.3514 0.276093H43.3508C43.5587 0.264074 43.7653 0.316208 43.9426 0.425442C44.1199 0.534677 44.2594 0.69574 44.3422 0.886844L49.2115 9.62142L54.0975 0.886844C54.1802 0.699218 54.3173 0.540721 54.4911 0.431842C54.6648 0.322963 54.8672 0.268709 55.0722 0.276093H58.0423C58.1349 0.273023 58.2272 0.288875 58.3135 0.32268C58.3998 0.356485 58.4783 0.407533 58.5442 0.472704C58.6156 0.534252 58.6724 0.610781 58.7107 0.696831C58.7491 0.782881 58.7679 0.87633 58.766 0.970508V19.0253C58.7685 19.1202 58.75 19.2144 58.7116 19.3013C58.6733 19.3881 58.6161 19.4653 58.5442 19.5273C58.4781 19.5919 58.3995 19.6423 58.3131 19.6754C58.2268 19.7085 58.1346 19.7236 58.0423 19.7197H54.7375C54.5438 19.7246 54.3554 19.6558 54.2104 19.5273C54.1458 19.4612 54.0954 19.3825 54.0623 19.2962C54.0292 19.2099 54.0141 19.1177 54.018 19.0253V8.60908L50.9057 14.4154C50.8212 14.6034 50.6853 14.7637 50.5135 14.8777C50.3418 14.9917 50.1413 15.0548 49.9352 15.0596H48.4878C48.281 15.0681 48.077 15.0094 47.9063 14.8923C47.7431 14.7656 47.6102 14.6041 47.5173 14.4196L44.3798 8.61326V19.0295C44.3793 19.2155 44.3092 19.3946 44.1832 19.5315C44.1177 19.5958 44.0398 19.646 43.9542 19.6791C43.8686 19.7122 43.7771 19.7274 43.6854 19.7239L40.3514 19.7197ZM70.6003 20C67.99 20 65.9346 19.36 64.4342 18.0799C62.9338 16.7998 62.1376 14.9216 62.0456 12.4451C62.0456 11.9055 62.0205 11.1106 62.0205 10.0565C62.0205 9.0023 62.0205 8.17402 62.0456 7.63857C62.1376 5.19557 62.9436 3.3159 64.4635 1.99958C65.9834 0.68326 68.029 0.0167329 70.6003 0C73.1549 0 75.2018 0.666527 76.7413 1.99958C78.2807 3.33264 79.0853 5.2123 79.155 7.63857C79.1926 8.71366 79.2136 9.51684 79.2136 10.0565C79.2136 10.5961 79.1926 11.37 79.155 12.4451C79.063 14.9244 78.2668 16.8026 76.7664 18.0799C75.266 19.3572 73.2106 19.9972 70.6003 20ZM70.6003 15.9967C71.0448 16.0198 71.4893 15.9503 71.9055 15.7926C72.3217 15.6349 72.7006 15.3924 73.0182 15.0805C73.629 14.4698 73.9552 13.5369 73.9887 12.2778C74.0264 11.2027 74.0473 10.4455 74.0473 9.99791C74.0473 9.5503 74.0473 8.74294 73.9887 7.72223C73.9552 6.46727 73.629 5.52604 73.0182 4.91529C72.3519 4.32511 71.4925 3.99926 70.6024 3.99926C69.7123 3.99926 68.8529 4.32511 68.1866 4.91529C67.5926 5.52604 67.2705 6.46308 67.2119 7.72223C67.2119 8.24095 67.1868 8.99812 67.1868 9.99791C67.1868 10.9977 67.1868 11.7381 67.2119 12.2778C67.2705 13.5327 67.5926 14.4698 68.1866 15.0805C68.5034 15.3923 68.8816 15.6347 69.2971 15.7924C69.7126 15.9502 70.1564 16.0197 70.6003 15.9967ZM87.4043 19.7197C87.2189 19.7199 87.0401 19.6514 86.9023 19.5273C86.7776 19.39 86.7089 19.2108 86.7099 19.0253V4.6392H81.7653C81.5795 4.63786 81.4007 4.56783 81.2633 4.44258C81.1388 4.30678 81.0701 4.12902 81.0709 3.94478V0.970508C81.0674 0.878799 81.0826 0.787336 81.1157 0.701732C81.1488 0.616129 81.199 0.538191 81.2633 0.472704C81.4007 0.347458 81.5795 0.277429 81.7653 0.276093H96.7078C96.8004 0.273023 96.8927 0.288875 96.9791 0.32268C97.0654 0.356485 97.1439 0.407533 97.2098 0.472704C97.2741 0.538191 97.3243 0.616129 97.3574 0.701732C97.3905 0.787336 97.4058 0.878799 97.4022 0.970508V3.94478C97.406 4.03652 97.3909 4.12805 97.3578 4.21369C97.3247 4.29933 97.2743 4.37724 97.2098 4.44258C97.1439 4.50776 97.0654 4.5588 96.9791 4.59261C96.8927 4.62641 96.8004 4.64227 96.7078 4.6392H91.7632V19.0253C91.7643 19.2108 91.6956 19.39 91.5708 19.5273C91.5047 19.5919 91.426 19.6423 91.3397 19.6754C91.2534 19.7085 91.1612 19.7236 91.0688 19.7197H87.4043ZM100.619 19.7197C100.527 19.7239 100.435 19.7088 100.349 19.6753C100.262 19.6419 100.184 19.5909 100.119 19.5256C100.054 19.4603 100.003 19.382 99.9691 19.2959C99.9357 19.2098 99.9205 19.1176 99.9247 19.0253V0.970508C99.922 0.878531 99.938 0.786959 99.9718 0.701374C100.006 0.615789 100.056 0.537985 100.121 0.472704C100.257 0.347735 100.435 0.277667 100.619 0.276093H113.587C113.68 0.273023 113.772 0.288875 113.858 0.32268C113.945 0.356485 114.023 0.407533 114.089 0.472704C114.153 0.538191 114.204 0.616129 114.237 0.701732C114.27 0.787336 114.285 0.878799 114.282 0.970508V3.58502C114.282 3.76926 114.214 3.94702 114.089 4.08283C114.023 4.148 113.945 4.19905 113.858 4.23285C113.772 4.26666 113.68 4.28251 113.587 4.27944H104.731V8.04434H112.981C113.075 8.04176 113.17 8.06032 113.257 8.09867C113.343 8.13701 113.421 8.19419 113.483 8.26605C113.547 8.33217 113.598 8.41082 113.631 8.49715C113.664 8.58348 113.679 8.67566 113.675 8.76804V11.1818C113.675 11.3671 113.607 11.546 113.483 11.6837C113.416 11.7484 113.338 11.7988 113.251 11.8319C113.165 11.865 113.073 11.88 112.981 11.8762H104.731V15.7373H113.813C113.906 15.7342 113.998 15.7501 114.084 15.7839C114.171 15.8177 114.249 15.8687 114.315 15.9339C114.38 15.9992 114.43 16.0772 114.463 16.1628C114.496 16.2484 114.511 16.34 114.507 16.4317V19.042C114.508 19.2276 114.44 19.4067 114.315 19.544C114.249 19.6086 114.17 19.6591 114.084 19.6922C113.998 19.7252 113.905 19.7403 113.813 19.7365L100.619 19.7197ZM134.47 18.7743C134.529 18.8662 134.559 18.9745 134.553 19.0839C134.555 19.171 134.539 19.2575 134.506 19.3381C134.473 19.4187 134.423 19.4917 134.361 19.5524C134.302 19.6095 134.232 19.6539 134.155 19.6827C134.078 19.7115 133.996 19.7241 133.913 19.7197H129.805C129.601 19.7339 129.397 19.6857 129.22 19.5817C129.082 19.4606 128.952 19.3307 128.831 19.1926L124.581 12.1314H122.665V19.0253C122.668 19.1203 122.65 19.2149 122.612 19.3018C122.573 19.3888 122.516 19.4659 122.443 19.5273C122.378 19.5918 122.3 19.6422 122.214 19.6753C122.128 19.7084 122.037 19.7235 121.945 19.7197H118.36C118.268 19.7239 118.176 19.7088 118.09 19.6753C118.003 19.6419 117.925 19.5909 117.86 19.5256C117.795 19.4603 117.744 19.382 117.71 19.2959C117.677 19.2098 117.662 19.1176 117.666 19.0253V0.970508C117.663 0.878531 117.679 0.786959 117.713 0.701374C117.747 0.615789 117.798 0.537985 117.862 0.472704C117.998 0.347038 118.175 0.27686 118.36 0.276093H121.945C122.037 0.272854 122.129 0.288643 122.215 0.322474C122.3 0.356305 122.378 0.407448 122.443 0.472704C122.515 0.533674 122.572 0.610095 122.611 0.696282C122.649 0.782469 122.668 0.876203 122.665 0.970508V7.66367L124.338 7.68877L128.425 0.807362C128.531 0.628474 128.685 0.483462 128.871 0.389355C129.056 0.295249 129.264 0.255956 129.471 0.276093H133.499C133.576 0.27495 133.653 0.289348 133.724 0.318428C133.795 0.347509 133.86 0.390673 133.914 0.445342C133.969 0.500012 134.011 0.565063 134.04 0.636608C134.069 0.708154 134.082 0.784725 134.081 0.861744C134.067 0.979347 134.03 1.09306 133.972 1.1964L128.806 9.62142L134.47 18.7743ZM136.03 19.7197C135.953 19.7208 135.877 19.7066 135.806 19.6778C135.735 19.6489 135.671 19.6061 135.616 19.5519C135.562 19.4977 135.519 19.4332 135.491 19.3621C135.462 19.291 135.448 19.2149 135.449 19.1383C135.445 19.0538 135.454 18.9694 135.474 18.8873L142.004 1.05417C142.058 0.834607 142.184 0.639871 142.364 0.501987C142.571 0.343977 142.827 0.263999 143.087 0.276093H147.195C147.455 0.263999 147.712 0.343977 147.919 0.501987C148.098 0.639871 148.225 0.834607 148.279 1.05417L154.779 18.8873L154.834 19.1383C154.832 19.2175 154.814 19.2955 154.781 19.3674C154.748 19.4394 154.7 19.5038 154.641 19.5566C154.587 19.6117 154.521 19.655 154.45 19.6838C154.378 19.7126 154.3 19.7262 154.223 19.7239H150.809C150.617 19.7407 150.425 19.6925 150.263 19.5871C150.102 19.4817 149.98 19.3251 149.918 19.1424L148.835 16.3146H141.418L140.364 19.1466C140.298 19.3321 140.173 19.4903 140.006 19.5957C139.84 19.7011 139.644 19.7478 139.448 19.7281L136.03 19.7197ZM147.743 12.3029L145.158 4.97385L142.577 12.3029H147.743Z" fill="url(#paint0_linear_972_230)"/>
</g>
<defs>
<linearGradient id="paint0_linear_972_230" x1="25.6557" y1="8.80987" x2="168.793" y2="12.328" gradientUnits="userSpaceOnUse">
<stop stop-color="#1647C6"/>
<stop offset="1" stop-color="#4E16C6"/>
</linearGradient>
<clipPath id="clip0_972_230">
<rect width="154.834" height="20" fill="white"/>
</clipPath>
</defs>
</svg>
