<svg width="66" height="70" viewBox="0 0 66 70" fill="none" xmlns="http://www.w3.org/2000/svg">
<path d="M12.5855 70C11.8522 70 11.2522 69.7667 10.7855 69.3C10.3855 68.8333 10.1855 68.2667 10.1855 67.6V56.6H2.58555C1.91888 56.6 1.35221 56.3667 0.885547 55.9C0.41888 55.4333 0.185547 54.8667 0.185547 54.2V51.1C0.185547 50.4333 0.41888 49.8667 0.885547 49.4C1.35221 48.9333 1.91888 48.7 2.58555 48.7H10.1855V43.4H2.58555C1.91888 43.4 1.35221 43.1667 0.885547 42.7C0.41888 42.2333 0.185547 41.6333 0.185547 40.9V35.5C0.185547 34.7667 0.41888 34.2 0.885547 33.8C1.35221 33.3333 1.91888 33.1 2.58555 33.1H10.1855V2.5C10.1855 1.76666 10.3855 1.16666 10.7855 0.699998C11.2522 0.23333 11.8522 -4.76837e-06 12.5855 -4.76837e-06H39.2855C44.5522 -4.76837e-06 49.1189 0.83333 52.9856 2.5C56.8522 4.1 59.8522 6.56666 61.9855 9.9C64.1189 13.1667 65.1855 17.2667 65.1855 22.2C65.1855 27 64.1189 30.9667 61.9855 34.1C59.8522 37.1667 56.8522 39.5 52.9856 41.1C49.1189 42.6333 44.5522 43.4 39.2855 43.4H24.4855V48.7H40.7856C41.5189 48.7 42.0855 48.9333 42.4855 49.4C42.9522 49.8667 43.1855 50.4333 43.1855 51.1V54.2C43.1855 54.8667 42.9522 55.4333 42.4855 55.9C42.0855 56.3667 41.5189 56.6 40.7856 56.6H24.4855V67.6C24.4855 68.2667 24.2522 68.8333 23.7855 69.3C23.3189 69.7667 22.7189 70 21.9855 70H12.5855ZM24.2855 33.1H38.7855C42.6522 33.1 45.6189 32.2 47.6855 30.4C49.8189 28.5333 50.8855 25.8 50.8855 22.2C50.8855 18.8667 49.9189 16.2 47.9855 14.2C46.0522 12.1333 42.9855 11.1 38.7855 11.1H24.2855V33.1Z" fill="#2DA255"/>
</svg>
