<svg width="66" height="66" viewBox="0 0 66 66" fill="none" xmlns="http://www.w3.org/2000/svg">
<circle cx="33" cy="32.9999" r="33" fill="#E9E9E9"/>
<path d="M33 30.857C34.4692 30.857 35.9055 30.4213 37.1271 29.6051C38.3487 28.7888 39.3009 27.6286 39.8631 26.2712C40.4254 24.9139 40.5725 23.4202 40.2858 21.9792C39.9992 20.5382 39.2917 19.2146 38.2528 18.1757C37.2139 17.1368 35.8902 16.4293 34.4492 16.1426C33.0082 15.856 31.5146 16.0031 30.1572 16.5653C28.7998 17.1276 27.6396 18.0797 26.8234 19.3014C26.0071 20.523 25.5714 21.9592 25.5714 23.4285C25.5714 25.3986 26.3541 27.2881 27.7472 28.6812C29.1403 30.0744 31.0298 30.857 33 30.857ZM44.1429 49.4285C44.6354 49.4285 45.1078 49.2328 45.4561 48.8845C45.8043 48.5362 46 48.0639 46 47.5713C46 44.1235 44.6304 40.8169 42.1924 38.3789C39.7544 35.9409 36.4478 34.5713 33 34.5713C29.5522 34.5713 26.2456 35.9409 23.8076 38.3789C21.3696 40.8169 20 44.1235 20 47.5713C20 48.0639 20.1957 48.5362 20.5439 48.8845C20.8922 49.2328 21.3646 49.4285 21.8571 49.4285H44.1429Z" fill="#B8B8B8"/>
</svg>
