<svg width="189" height="63" viewBox="0 0 189 63" fill="none" xmlns="http://www.w3.org/2000/svg">
<path d="M173.949 0.00020475H15.0593C14.4801 0.00020475 13.9079 0.00020475 13.3302 0.00335475C12.8467 0.00650475 12.367 0.0156555 11.8788 0.0233573C10.8183 0.0358026 9.7602 0.128845 8.71383 0.301676C7.66892 0.478269 6.65674 0.811197 5.71154 1.2892C4.76748 1.77125 3.90487 2.39762 3.155 3.14559C2.4012 3.89146 1.77284 4.75358 1.2941 5.69881C0.814034 6.64215 0.481156 7.65303 0.306961 8.69654C0.131109 9.73872 0.0364821 10.7929 0.0239282 11.8497C0.0092712 12.3326 0.00772337 12.8171 0 13.3V49.705C0.00772337 50.194 0.0092712 50.6678 0.0239282 51.157C0.0364859 52.2137 0.131113 53.2679 0.306961 54.31C0.480675 55.3541 0.813573 56.3656 1.2941 57.3093C1.77262 58.2514 2.40107 59.1101 3.155 59.8518C3.90203 60.6031 4.7652 61.2299 5.71154 61.7082C6.65674 62.1875 7.6688 62.5224 8.71383 62.7018C9.76038 62.8732 10.8183 62.9663 11.8788 62.9802C12.367 62.9909 12.8467 62.9971 13.3302 62.9971C13.9079 63.0002 14.4801 63.0002 15.0593 63.0002H173.949C174.517 63.0002 175.094 63.0002 175.661 62.9971C176.143 62.9971 176.636 62.9909 177.117 62.9802C178.176 62.967 179.232 62.8739 180.276 62.7018C181.325 62.5212 182.34 62.1863 183.29 61.7082C184.236 61.2296 185.098 60.6028 185.844 59.8518C186.596 59.1072 187.226 58.2492 187.711 57.3093C188.187 56.3649 188.517 55.3535 188.688 54.31C188.865 53.2677 188.962 52.2138 188.982 51.157C188.988 50.6678 188.988 50.194 188.988 49.705C189 49.1328 189 48.5638 189 47.9823V15.0196C189 14.4428 189 13.8707 188.988 13.3C188.988 12.8171 188.988 12.3326 188.982 11.8496C188.962 10.7928 188.865 9.7388 188.688 8.69647C188.517 7.65357 188.187 6.64277 187.711 5.69874C186.736 3.80414 185.19 2.26195 183.29 1.28906C182.34 0.812223 181.325 0.479383 180.276 0.301534C179.232 0.127942 178.176 0.034867 177.117 0.0231368C176.636 0.0154508 176.143 0.00622125 175.661 0.00315C175.094 0 174.517 0.00020475 173.949 0.00020475Z" fill="#A6A6A6"/>
<path d="M13.338 61.6219C12.8568 61.6219 12.3872 61.6158 11.9097 61.6051C10.9207 61.5922 9.93393 61.5064 8.95759 61.3482C8.04719 61.1918 7.16527 60.901 6.3409 60.4853C5.52408 60.073 4.77909 59.5323 4.13444 58.8841C3.48047 58.2435 2.93601 57.5005 2.52263 56.6846C2.1047 55.8634 1.81546 54.9831 1.665 54.0745C1.50252 53.0982 1.41461 52.111 1.40203 51.1214C1.39202 50.7892 1.37891 49.6833 1.37891 49.6833V13.2999C1.37891 13.2999 1.39287 12.2109 1.40211 11.891C1.41415 10.903 1.50155 9.91728 1.66355 8.94247C1.81429 8.03137 2.10375 7.14858 2.5219 6.32467C2.93376 5.50931 3.4752 4.76578 4.12524 4.1229C4.77454 3.4739 5.52192 2.9305 6.34012 2.5125C7.1626 2.0981 8.04286 1.8093 8.95141 1.6558C9.93096 1.49604 10.9211 1.40967 11.9136 1.3974L13.3388 1.37817H175.654L177.096 1.39818C178.079 1.40983 179.06 1.49543 180.031 1.65426C180.949 1.80968 181.838 2.10049 182.67 2.51712C184.309 3.3595 185.643 4.69223 186.484 6.32851C186.896 7.14673 187.181 8.02232 187.33 8.92556C187.494 9.90836 187.585 10.9018 187.604 11.8979C187.609 12.344 187.609 12.8231 187.609 13.2999C187.621 13.8905 187.621 14.4527 187.621 15.0195V47.9821C187.621 48.5543 187.621 49.1127 187.609 49.6756C187.609 50.1877 187.609 50.6569 187.603 51.1398C187.584 52.1182 187.494 53.0939 187.333 54.0591C187.185 54.9743 186.898 55.8614 186.48 56.6893C186.063 57.4964 185.522 58.2329 184.876 58.8718C184.23 59.5235 183.484 60.0673 182.665 60.4823C181.836 60.9012 180.948 61.1931 180.031 61.3482C179.055 61.5072 178.068 61.5931 177.079 61.6051C176.616 61.6158 176.132 61.6219 175.661 61.6219L173.949 61.6251L13.338 61.6219Z" fill="black"/>
<path d="M39.1205 31.9734C39.1374 30.6588 39.4876 29.3699 40.1384 28.2265C40.7891 27.0831 41.7193 26.1225 42.8425 25.4339C42.129 24.4178 41.1877 23.5816 40.0935 22.9916C38.9992 22.4017 37.7821 22.0744 36.5387 22.0356C33.8865 21.758 31.3153 23.6182 29.9638 23.6182C28.5861 23.6182 26.5052 22.0631 24.2644 22.1091C22.815 22.1558 21.4025 22.5761 20.1644 23.329C18.9263 24.082 17.905 25.1419 17.1998 26.4055C14.1452 31.6793 16.4237 39.4299 19.3497 43.6928C20.8137 45.7803 22.5246 48.112 24.7634 48.0293C26.9541 47.9387 27.7723 46.6362 30.4168 46.6362C33.0366 46.6362 33.8043 48.0293 36.0885 47.9767C38.4392 47.9386 39.9203 45.88 41.3329 43.7728C42.3848 42.2854 43.1942 40.6416 43.7312 38.9021C42.3654 38.3261 41.1999 37.3619 40.38 36.1298C39.5601 34.8977 39.1221 33.4521 39.1205 31.9734Z" fill="white"/>
<path d="M34.8061 19.2321C36.0879 17.6977 36.7194 15.7255 36.5664 13.7344C34.6082 13.9395 32.7994 14.8728 31.5003 16.3483C30.8652 17.0691 30.3787 17.9077 30.0688 18.8161C29.7588 19.7245 29.6314 20.6849 29.6939 21.6425C30.6734 21.6525 31.6424 21.4408 32.5279 21.0233C33.4134 20.6058 34.1924 19.9933 34.8061 19.2321Z" fill="white"/>
<path d="M66.8132 42.7448H59.3372L57.5418 48.0312H54.3752L61.4564 28.4729H64.7464L71.8275 48.0312H68.607L66.8132 42.7448ZM60.1114 40.3054H66.0374L63.1161 31.726H63.0344L60.1114 40.3054Z" fill="white"/>
<path d="M87.1205 40.9023C87.1205 45.3335 84.7421 48.1805 81.1529 48.1805C80.2437 48.2279 79.3395 48.0191 78.5438 47.5779C77.7481 47.1366 77.0931 46.4809 76.6537 45.6857H76.5858V52.7486H73.6506V33.7717H76.4918V36.1434H76.5458C77.0053 35.352 77.6714 34.6997 78.4732 34.2558C79.2749 33.8119 80.1824 33.593 81.099 33.6225C84.7282 33.6225 87.1205 36.4833 87.1205 40.9023ZM84.1035 40.9023C84.1035 38.0153 82.6074 36.1173 80.3247 36.1173C78.082 36.1173 76.5735 38.0553 76.5735 40.9023C76.5735 43.7754 78.082 45.6996 80.3247 45.6996C82.6074 45.6996 84.1035 43.8154 84.1035 40.9023Z" fill="white"/>
<path d="M102.859 40.9023C102.859 45.3335 100.481 48.1805 96.8917 48.1805C95.9825 48.2279 95.0783 48.0191 94.2826 47.5778C93.4869 47.1366 92.8319 46.4809 92.3925 45.6857H92.3246V52.7486H89.3894V33.7717H92.2305V36.1434H92.2845C92.744 35.352 93.4101 34.6997 94.2119 34.2558C95.0136 33.8119 95.9211 33.593 96.8377 33.6225C100.467 33.6225 102.859 36.4833 102.859 40.9023ZM99.8423 40.9023C99.8423 38.0153 98.3462 36.1173 96.0634 36.1173C93.8208 36.1173 92.3123 38.0553 92.3123 40.9023C92.3123 43.7754 93.8208 45.6996 96.0634 45.6996C98.3462 45.6996 99.8423 43.8154 99.8423 40.9023Z" fill="white"/>
<path d="M113.261 42.5817C113.479 44.5213 115.368 45.7947 117.95 45.7947C120.424 45.7947 122.204 44.5212 122.204 42.7724C122.204 41.2543 121.131 40.3453 118.589 39.7224L116.047 39.1118C112.445 38.2443 110.773 36.5647 110.773 33.8392C110.773 30.4646 113.722 28.1467 117.91 28.1467C122.054 28.1467 124.896 30.4646 124.991 33.8392H122.028C121.851 31.8874 120.233 30.7092 117.868 30.7092C115.504 30.7092 113.886 31.9012 113.886 33.6362C113.886 35.0189 114.919 35.8326 117.447 36.4554L119.608 36.9845C123.632 37.9335 125.304 39.5455 125.304 42.4063C125.304 46.0654 122.381 48.3571 117.733 48.3571C113.383 48.3571 110.446 46.1192 110.257 42.5816L113.261 42.5817Z" fill="white"/>
<path d="M131.639 30.397V33.7715H134.358V36.0894H131.639V43.9506C131.639 45.1718 132.183 45.7409 133.379 45.7409C133.701 45.7353 134.024 45.7127 134.344 45.6732V47.9772C133.807 48.0774 133.261 48.1227 132.714 48.1126C129.819 48.1126 128.69 47.0282 128.69 44.2628V36.0894H126.611V33.7715H128.69V30.397H131.639Z" fill="white"/>
<path d="M135.933 40.9021C135.933 36.4155 138.583 33.5962 142.715 33.5962C146.861 33.5962 149.499 36.4154 149.499 40.9021C149.499 45.401 146.875 48.208 142.715 48.208C138.557 48.208 135.933 45.401 135.933 40.9021ZM146.508 40.9021C146.508 37.8244 145.093 36.0079 142.715 36.0079C140.337 36.0079 138.924 37.8382 138.924 40.9021C138.924 43.9921 140.337 45.7948 142.715 45.7948C145.093 45.7948 146.508 43.9921 146.508 40.9021Z" fill="white"/>
<path d="M151.918 33.7716H154.718V36.1986H154.786C154.975 35.4406 155.421 34.7707 156.047 34.3016C156.673 33.8324 157.443 33.5925 158.225 33.6224C158.564 33.6212 158.901 33.6578 159.231 33.7316V36.4694C158.804 36.3392 158.359 36.2795 157.912 36.2925C157.486 36.2752 157.061 36.3502 156.666 36.5122C156.272 36.6743 155.917 36.9196 155.626 37.2313C155.336 37.5429 155.116 37.9136 154.983 38.3179C154.849 38.7221 154.805 39.1504 154.854 39.5732V48.0311H151.918L151.918 33.7716Z" fill="white"/>
<path d="M172.764 43.8429C172.369 46.4315 169.841 48.208 166.607 48.208C162.447 48.208 159.865 45.4287 159.865 40.9698C159.865 36.497 162.461 33.5962 166.483 33.5962C170.439 33.5962 172.927 36.3063 172.927 40.6299V41.6327H162.828V41.8096C162.781 42.3344 162.847 42.863 163.021 43.3605C163.195 43.8579 163.473 44.3128 163.837 44.6948C164.201 45.0768 164.642 45.3772 165.131 45.5762C165.62 45.7751 166.147 45.868 166.674 45.8486C167.368 45.9134 168.064 45.7532 168.659 45.3918C169.254 45.0304 169.716 44.4872 169.977 43.8429L172.764 43.8429ZM162.842 39.587H169.991C170.017 39.1152 169.945 38.643 169.78 38.2001C169.615 37.7572 169.359 37.3531 169.03 37.0133C168.701 36.6734 168.304 36.4052 167.866 36.2253C167.428 36.0454 166.957 35.9578 166.483 35.9679C166.005 35.9651 165.531 36.0567 165.089 36.2374C164.647 36.4181 164.245 36.6844 163.906 37.0208C163.568 37.3573 163.299 37.7573 163.117 38.1978C162.934 38.6382 162.84 39.1104 162.842 39.587Z" fill="white"/>
<path d="M58.0252 17.7241H59.2853C59.5022 17.7511 59.7224 17.7329 59.9319 17.6708C60.1415 17.6087 60.3358 17.5039 60.5028 17.3632C60.6697 17.2224 60.8056 17.0487 60.9019 16.853C60.9981 16.6573 61.0527 16.4438 61.0621 16.226C61.0621 15.3593 60.4082 14.7995 59.2992 14.7995C59.0769 14.7685 58.8507 14.7823 58.6339 14.8399C58.4171 14.8976 58.214 14.998 58.0367 15.1352C57.8595 15.2724 57.7116 15.4436 57.6017 15.6388C57.4919 15.8339 57.4225 16.049 57.3974 16.2714H56.0138C56.0376 15.8677 56.1445 15.4733 56.3278 15.1126C56.5112 14.7519 56.767 14.4327 57.0793 14.1749C57.3917 13.917 57.754 13.7261 58.1436 13.6139C58.5332 13.5017 58.9417 13.4707 59.3439 13.5229C61.1994 13.5229 62.5059 14.5587 62.5059 16.0499C62.5102 16.5495 62.3426 17.0354 62.031 17.4266C61.7194 17.8178 61.2827 18.0906 60.7938 18.1994V18.3101C61.3734 18.3358 61.9193 18.5892 62.3121 19.0151C62.7049 19.4409 62.9126 20.0045 62.8899 20.5827C62.847 20.9983 62.7213 21.4012 62.5203 21.7678C62.3192 22.1343 62.0468 22.4572 61.719 22.7174C61.3911 22.9776 61.0145 23.17 60.6112 23.2832C60.2079 23.3964 59.7859 23.4281 59.3701 23.3766C58.9535 23.4333 58.5296 23.4057 58.1239 23.2955C57.7181 23.1853 57.3388 22.9948 57.0085 22.7353C56.6781 22.4758 56.4036 22.1526 56.2012 21.785C55.9987 21.4174 55.8726 21.013 55.8303 20.5958H57.2355C57.3203 21.4948 58.1486 22.0747 59.3701 22.0747C60.5917 22.0747 61.3891 21.4233 61.3891 20.5051C61.3891 19.5738 60.638 19 59.3254 19H58.0252V17.7241Z" fill="white"/>
<path d="M64.4863 21.1433C64.4863 19.8666 65.4411 19.1307 67.1315 19.0261L69.058 18.9153V18.3032C69.058 17.5541 68.5629 17.1312 67.602 17.1312C66.8185 17.1312 66.2771 17.418 66.1197 17.9194H64.7609C64.9043 16.7013 66.055 15.9199 67.6683 15.9199C69.4513 15.9199 70.457 16.8051 70.457 18.3032V23.1489H69.1043V22.1522H68.9932C68.7678 22.5098 68.4513 22.8012 68.076 22.9968C67.7007 23.1925 67.28 23.2853 66.857 23.2658C66.5584 23.2967 66.2567 23.265 65.9712 23.1725C65.6857 23.0801 65.4228 22.929 65.1994 22.729C64.9761 22.529 64.7972 22.2846 64.6744 22.0115C64.5516 21.7383 64.4875 21.4426 64.4863 21.1433ZM69.058 20.5372V19.9443L67.3212 20.0551C66.3418 20.1204 65.8976 20.4526 65.8976 21.0779C65.8976 21.7162 66.4528 22.0876 67.2164 22.0876C67.4401 22.1102 67.6661 22.0877 67.8809 22.0214C68.0957 21.9551 68.295 21.8464 68.4668 21.7018C68.6386 21.5571 68.7795 21.3795 68.8811 21.1794C68.9826 20.9794 69.0428 20.761 69.058 20.5372Z" fill="white"/>
<path d="M74.1819 17.2351V23.149H72.7783V16.0569H77.4611V17.235L74.1819 17.2351Z" fill="white"/>
<path d="M85.9673 19.5998C85.9673 21.8531 84.8244 23.2659 83.029 23.2659C82.5883 23.2959 82.1481 23.1997 81.7604 22.9887C81.3726 22.7776 81.0534 22.4605 80.8403 22.0746H80.7293V25.5068H79.3257V16.0568H80.6768V17.2289H80.7817C80.9986 16.8296 81.322 16.4978 81.7161 16.2702C82.1103 16.0426 82.5598 15.928 83.0151 15.9392C84.8243 15.9392 85.9673 17.3457 85.9673 19.5998ZM84.5236 19.5998C84.5236 18.1017 83.8125 17.1966 82.6234 17.1966C81.442 17.1966 80.7031 18.1209 80.7031 19.606C80.7031 21.0841 81.4419 22.0092 82.6172 22.0092C83.8125 22.0092 84.5236 21.1041 84.5236 19.5998Z" fill="white"/>
<path d="M87.8368 25.6892V24.4841C87.9887 24.5033 88.1417 24.512 88.2948 24.5102C88.5939 24.5323 88.8906 24.4435 89.128 24.2608C89.3654 24.0782 89.5268 23.8145 89.5812 23.5204L89.6861 23.1751L87.1118 16.0569H88.6403L90.4234 21.6901H90.5345L92.3113 16.0569H93.7997L91.1484 23.442C90.5407 25.1677 89.8682 25.7215 88.4183 25.7215C88.3011 25.7214 87.9679 25.7084 87.8368 25.6892Z" fill="white"/>
<path d="M94.8933 21.1364H96.2907C96.428 21.7617 97.0157 22.0877 97.8378 22.0877C98.7725 22.0877 99.3462 21.677 99.3462 21.0387C99.3462 20.3551 98.8311 20.029 97.8378 20.029H96.7735V18.9416H97.8193C98.6676 18.9416 99.0995 18.6163 99.0995 18.0233C99.0995 17.5027 98.6815 17.1051 97.8193 17.1051C97.0342 17.1051 96.4604 17.4373 96.3693 17.9972H95.0167C95.1178 17.3539 95.4681 16.7758 95.9922 16.3874C96.5163 15.9989 97.1724 15.8311 97.8193 15.92C99.5097 15.92 100.477 16.6821 100.477 17.8803C100.485 18.214 100.378 18.5402 100.173 18.8045C99.9687 19.0688 99.6796 19.2551 99.3539 19.3323V19.443C99.7416 19.4929 100.097 19.6829 100.354 19.9771C100.61 20.2712 100.75 20.649 100.745 21.0388C100.745 22.387 99.5946 23.279 97.8378 23.279C96.2846 23.2789 95.0229 22.5691 94.8933 21.1364Z" fill="white"/>
<path d="M102.766 23.149V16.0569H104.158V20.9349H104.269L107.546 16.0569H108.938V23.149H107.546V18.2448H107.441L104.158 23.149L102.766 23.149Z" fill="white"/>
<path d="M116.602 17.235H114.362V23.1489H112.957V17.235H110.718V16.0569H116.602V17.235Z" fill="white"/>
<path d="M124.163 21.2341C123.971 21.8823 123.558 22.4428 122.994 22.8179C122.431 23.1929 121.753 23.3586 121.079 23.2859C120.611 23.2983 120.145 23.2088 119.715 23.0237C119.284 22.8386 118.899 22.5623 118.587 22.214C118.274 21.8657 118.041 21.4537 117.905 21.0067C117.768 20.5597 117.73 20.0883 117.794 19.6253C117.732 19.1608 117.77 18.6885 117.907 18.2401C118.043 17.7917 118.275 17.3779 118.586 17.0265C118.897 16.6752 119.28 16.3946 119.709 16.2037C120.138 16.0128 120.603 15.916 121.073 15.92C123.052 15.92 124.247 17.2682 124.247 19.4953V19.9837H119.225V20.0621C119.203 20.3225 119.236 20.5845 119.321 20.8315C119.407 21.0785 119.543 21.305 119.721 21.4963C119.9 21.6877 120.116 21.8397 120.357 21.9426C120.598 22.0455 120.857 22.097 121.119 22.0939C121.455 22.1339 121.795 22.0735 122.096 21.9204C122.397 21.7673 122.645 21.5284 122.81 21.2341L124.163 21.2341ZM119.225 18.9485H122.816C122.834 18.7106 122.801 18.4717 122.721 18.247C122.641 18.0223 122.514 17.8168 122.349 17.6438C122.185 17.4708 121.985 17.334 121.765 17.2423C121.544 17.1506 121.306 17.106 121.067 17.1113C120.824 17.108 120.583 17.1533 120.358 17.2445C120.133 17.3356 119.929 17.4709 119.757 17.6421C119.585 17.8134 119.45 18.0173 119.359 18.2416C119.267 18.466 119.222 18.7064 119.225 18.9485Z" fill="white"/>
<path d="M130.113 16.0569H133.32C134.711 16.0569 135.527 16.7598 135.527 17.8603C135.529 18.2094 135.411 18.5488 135.192 18.8215C134.974 19.0942 134.668 19.2837 134.326 19.3584V19.4691C134.741 19.4953 135.13 19.6795 135.413 19.9838C135.696 20.2881 135.851 20.6891 135.846 21.1041C135.846 22.3415 134.913 23.149 133.352 23.149H130.113V16.0569ZM131.505 17.1312V18.9677H132.896C133.744 18.9677 134.15 18.6424 134.15 18.0425C134.15 17.4896 133.797 17.1312 133.052 17.1312L131.505 17.1312ZM131.505 19.9967V22.0747H133.169C133.999 22.0747 134.443 21.7094 134.443 21.0388C134.443 20.3289 133.94 19.9967 132.993 19.9967L131.505 19.9967Z" fill="white"/>
</svg>
