<svg width="169" height="206" viewBox="0 0 169 206" fill="none" xmlns="http://www.w3.org/2000/svg">
<g opacity="0.66">
<path d="M62.5002 35.5C78.0002 43 107.7 62.2 102.5 79C96.0002 100 42.5002 114 62.5002 140C78.5002 160.8 95.8335 173.333 102.5 177" stroke="#88BA38" stroke-width="2" stroke-dasharray="5 5"/>
<circle cx="51.5" cy="29.5" r="6.5" fill="#88BA38" fill-opacity="0.17"/>
<circle cx="51.5" cy="29.5" r="3.5" fill="#88BA38"/>
<circle cx="111.5" cy="183.5" r="6.5" fill="#88BA38" fill-opacity="0.17"/>
<circle cx="111.5" cy="183.5" r="3.5" fill="#88BA38"/>
</g>
<g clip-path="url(#clip0_287_70)">
<path d="M132.004 188.64L149.357 173.489L166.711 188.64C166.954 188.848 167.269 188.951 167.587 188.926C167.905 188.902 168.2 188.752 168.409 188.509C168.618 188.267 168.724 187.951 168.703 187.63C168.682 187.31 168.537 187.011 168.298 186.797L150.151 170.954C149.931 170.762 149.65 170.656 149.359 170.656C149.067 170.656 148.786 170.762 148.566 170.954L142.098 176.599V174.312C142.098 173.666 141.843 173.046 141.39 172.589C140.936 172.132 140.32 171.875 139.679 171.875C139.037 171.875 138.422 172.132 137.968 172.589C137.514 173.046 137.259 173.666 137.259 174.312V180.823L130.416 186.797C130.174 187.01 130.026 187.31 130.003 187.633C129.98 187.955 130.085 188.274 130.295 188.518C130.736 189.025 131.498 189.081 132.004 188.64ZM144.518 193.812H154.197V206H161.456C162.097 206 162.713 205.743 163.167 205.286C163.62 204.829 163.875 204.209 163.875 203.562V191.616C163.875 190.885 163.551 190.195 162.99 189.732L150.891 179.741C150.459 179.383 149.917 179.187 149.357 179.187C148.798 179.187 148.255 179.383 147.823 179.741L135.725 189.732C135.448 189.96 135.225 190.248 135.071 190.574C134.918 190.9 134.839 191.256 134.839 191.616V203.562C134.839 204.209 135.094 204.829 135.548 205.286C136.002 205.743 136.617 206 137.259 206H144.518V193.812Z" fill="#88BA38" fill-opacity="0.31"/>
</g>
<path d="M9.78442 37.9646C9.54716 37.9646 9.35304 37.8836 9.20206 37.7216C9.05108 37.5596 8.97559 37.3514 8.97559 37.0968V14.535C8.97559 14.2805 9.05108 14.0722 9.20206 13.9102C9.35304 13.7482 9.54716 13.6672 9.78442 13.6672H18.1963C20.3101 13.6672 22.1111 14.0375 23.5994 14.778C25.0876 15.4953 26.2308 16.5598 27.0288 17.9713C27.8269 19.3598 28.2582 21.0837 28.323 23.1432C28.3445 24.1614 28.3553 25.0523 28.3553 25.8159C28.3553 26.5795 28.3445 27.4589 28.323 28.4539C28.2367 30.606 27.8053 32.3878 27.0288 33.7993C26.2739 35.2109 25.1631 36.2638 23.6964 36.958C22.2513 37.6291 20.4719 37.9646 18.3581 37.9646H9.78442ZM14.7669 32.9663H18.1963C19.1238 32.9663 19.8895 32.8159 20.4934 32.515C21.1189 32.1911 21.5827 31.6936 21.8846 31.0225C22.2082 30.3514 22.3807 29.4721 22.4023 28.3845C22.4454 27.7134 22.467 27.1118 22.467 26.5795C22.4886 26.0473 22.4886 25.5151 22.467 24.9829C22.467 24.4506 22.4454 23.8606 22.4023 23.2126C22.3591 21.6391 21.9709 20.4936 21.2375 19.7763C20.5258 19.0358 19.4581 18.6655 18.0346 18.6655H14.7669V32.9663Z" fill="#88BA38" fill-opacity="0.31"/>
<path fill-rule="evenodd" clip-rule="evenodd" d="M19.4423 1.07665L34.0645 7.88649C34.2751 7.98459 34.3686 8.23632 34.2732 8.44875L32.9808 11.3285C32.8855 11.5409 32.6374 11.6336 32.4268 11.5355L17.1695 4.42984L1.87979 11.5271C1.66904 11.6249 1.42111 11.5319 1.32604 11.3194L0.0371377 8.43799C-0.05794 8.22544 0.0358352 7.97383 0.24659 7.876L15.5368 0.77852L15.5369 0.778735L17.1817 0L19.4423 1.07665ZM17.1543 4.39444L17.1552 4.39646L17.1576 4.39121L17.1543 4.39444Z" fill="#88BA38" fill-opacity="0.31"/>
<defs>
<clipPath id="clip0_287_70">
<rect width="39" height="39" fill="white" transform="translate(130 167)"/>
</clipPath>
</defs>
</svg>
