<svg width="254" height="48" viewBox="0 0 254 48" fill="none" xmlns="http://www.w3.org/2000/svg">
<path d="M32.9795 0.654785V31.0073H37.1366V47.0174H28.2682V39.5682H8.86845V47.0174H0V31.0073H3.93537C5.96773 28.0795 6.9839 23.7805 6.9839 18.1102V0.654785H32.9795ZM13.3581 31.0073H24.1111V8.99338H15.8524V18.2214C15.8524 23.7434 15.0209 28.0054 13.3581 31.0073Z" fill="white"/>
<path d="M64.2092 36.1216C61.4009 38.9382 57.9274 40.3465 53.7888 40.3465C49.6502 40.3465 46.1767 38.9382 43.3684 36.1216C40.5231 33.2679 39.1004 29.7843 39.1004 25.6706C39.1004 21.5939 40.5231 18.1288 43.3684 15.2751C46.2136 12.4215 49.6871 10.9946 53.7888 10.9946C57.8904 10.9946 61.3639 12.4215 64.2092 15.2751C67.0545 18.1288 68.4771 21.5939 68.4771 25.6706C68.4771 29.7843 67.0545 33.2679 64.2092 36.1216ZM47.4146 25.6706C47.4146 27.5977 48.0243 29.1728 49.2437 30.3958C50.4631 31.6188 51.9781 32.2303 53.7888 32.2303C55.5994 32.2303 57.1145 31.6188 58.3339 30.3958C59.5533 29.1728 60.163 27.5977 60.163 25.6706C60.163 23.7434 59.5533 22.1684 58.3339 20.9454C57.1145 19.7224 55.5994 19.1109 53.7888 19.1109C51.9781 19.1109 50.4631 19.7224 49.2437 20.9454C48.0243 22.1684 47.4146 23.7434 47.4146 25.6706Z" fill="white"/>
<path d="M94.575 11.7729H102.557V39.5682H94.575V25.2258L88.3671 34.8986H87.3694L81.1615 25.2258V39.5682H73.1799V11.7729H81.1615L87.8682 22.2795L94.575 11.7729Z" fill="white"/>
<path d="M132.357 36.1216C129.549 38.9382 126.075 40.3465 121.937 40.3465C117.798 40.3465 114.325 38.9382 111.516 36.1216C108.671 33.2679 107.248 29.7843 107.248 25.6706C107.248 21.5939 108.671 18.1288 111.516 15.2751C114.362 12.4215 117.835 10.9946 121.937 10.9946C126.038 10.9946 129.512 12.4215 132.357 15.2751C135.203 18.1288 136.625 21.5939 136.625 25.6706C136.625 29.7843 135.203 33.2679 132.357 36.1216ZM115.563 25.6706C115.563 27.5977 116.172 29.1728 117.392 30.3958C118.611 31.6188 120.126 32.2303 121.937 32.2303C123.747 32.2303 125.263 31.6188 126.482 30.3958C127.701 29.1728 128.311 27.5977 128.311 25.6706C128.311 23.7434 127.701 22.1684 126.482 20.9454C125.263 19.7224 123.747 19.1109 121.937 19.1109C120.126 19.1109 118.611 19.7224 117.392 20.9454C116.172 22.1684 115.563 23.7434 115.563 25.6706Z" fill="white"/>
<path d="M137.751 11.7729H162.694V19.778H154.435V39.5682H146.121V19.778H137.751V11.7729Z" fill="white"/>
<path d="M192.303 29.006H172.626C173.55 31.6002 175.767 32.8973 179.277 32.8973C181.531 32.8973 183.305 32.1932 184.598 30.7849L191.25 34.6207C188.552 38.4379 184.524 40.3465 179.166 40.3465C174.547 40.3465 170.815 38.9567 167.97 36.1772C165.199 33.3977 163.813 29.8954 163.813 25.6706C163.813 21.5198 165.18 18.0361 167.915 15.2195C170.686 12.4029 174.233 10.9946 178.557 10.9946C182.585 10.9946 185.929 12.4029 188.589 15.2195C191.287 17.962 192.635 21.4457 192.635 25.6706C192.635 26.8565 192.525 27.9683 192.303 29.006ZM172.46 22.7799H184.377C183.564 19.8521 181.605 18.3882 178.501 18.3882C175.287 18.3882 173.273 19.8521 172.46 22.7799Z" fill="white"/>
<path d="M213.591 25.6706L223.956 39.5682H214.534L205.665 27.2827V39.5682H197.351V11.7729H205.665V23.9473L213.979 11.7729H223.679L213.591 25.6706Z" fill="white"/>
<path d="M245.456 14.3857V11.7729H253.77V39.5682H245.456V36.9555C243.534 39.2161 240.782 40.3465 237.197 40.3465C233.539 40.3465 230.417 38.9382 227.83 36.1216C225.243 33.305 223.95 29.8213 223.95 25.6706C223.95 21.5569 225.243 18.0917 227.83 15.2751C230.453 12.4215 233.576 10.9946 237.197 10.9946C240.782 10.9946 243.534 12.125 245.456 14.3857ZM232.264 25.6706C232.264 27.7459 232.874 29.3951 234.093 30.6181C235.313 31.8411 236.902 32.4526 238.86 32.4526C240.818 32.4526 242.407 31.8411 243.627 30.6181C244.846 29.3951 245.456 27.7459 245.456 25.6706C245.456 23.5952 244.846 21.946 243.627 20.723C242.407 19.5 240.818 18.8885 238.86 18.8885C236.902 18.8885 235.313 19.5 234.093 20.723C232.874 21.946 232.264 23.5952 232.264 25.6706Z" fill="white"/>
</svg>
