<svg width="26" height="24" viewBox="0 0 26 24" fill="none" xmlns="http://www.w3.org/2000/svg">
<path d="M1.33572 12.4267L12.9049 2.32575L24.4741 12.4267C24.6362 12.5652 24.8459 12.6337 25.0579 12.6174C25.2698 12.6011 25.4668 12.5012 25.6061 12.3395C25.7453 12.1778 25.8157 11.9672 25.8019 11.7536C25.7881 11.5399 25.6912 11.3404 25.5323 11.1982L13.434 0.635746C13.2874 0.50769 13.0998 0.437195 12.9057 0.437195C12.7116 0.437195 12.5241 0.50769 12.3774 0.635746L8.06559 4.39925V2.875C8.06559 2.44402 7.89564 2.03069 7.59312 1.72595C7.29061 1.4212 6.88031 1.25 6.45249 1.25C6.02467 1.25 5.61437 1.4212 5.31185 1.72595C5.00934 2.03069 4.83939 2.44402 4.83939 2.875V7.21537L0.277529 11.1982C0.116202 11.3399 0.0171391 11.5401 0.00202281 11.7551C-0.0130935 11.9701 0.0569688 12.1824 0.196873 12.3455C0.490458 12.6835 0.998586 12.7209 1.33572 12.4267ZM9.67869 15.875H16.1311V24H20.9704C21.3982 24 21.8085 23.8288 22.1111 23.524C22.4136 23.2193 22.5835 22.806 22.5835 22.375V14.4109C22.5835 13.9234 22.3674 13.4635 21.9931 13.1547L13.9276 6.49387C13.6395 6.25512 13.278 6.12458 12.9049 6.12458C12.5318 6.12458 12.1703 6.25512 11.8822 6.49387L3.81668 13.1547C3.63188 13.3068 3.48302 13.4985 3.3809 13.7158C3.27878 13.933 3.22596 14.1705 3.22628 14.4109V22.375C3.22628 22.806 3.39623 23.2193 3.69875 23.524C4.00126 23.8288 4.41156 24 4.83939 24H9.67869V15.875Z" fill="#88BA38"/>
</svg>
