<svg width="82" height="90" viewBox="0 0 82 90" fill="none" xmlns="http://www.w3.org/2000/svg">
<path d="M23.1862 89.9646C22.624 89.9646 22.164 89.7726 21.8062 89.3888C21.4484 89.0049 21.2695 88.5114 21.2695 87.9082V34.4435C21.2695 33.8404 21.4484 33.3468 21.8062 32.963C22.164 32.5791 22.624 32.3872 23.1862 32.3872H43.1199C48.1288 32.3872 52.3967 33.2646 55.9234 35.0193C59.4501 36.7192 62.1591 39.2417 64.0502 42.5866C65.9413 45.8768 66.9636 49.962 67.1169 54.8424C67.168 57.2551 67.1936 59.3663 67.1936 61.1759C67.1936 62.9855 67.168 65.0692 67.1169 67.4271C66.9125 72.5269 65.8902 76.7492 64.0502 80.0942C62.2613 83.4391 59.629 85.9342 56.1534 87.5792C52.7289 89.1695 48.5122 89.9646 43.5032 89.9646H23.1862ZM34.9931 78.1201H43.1199C45.3177 78.1201 47.1322 77.7636 48.5633 77.0508C50.0455 76.2831 51.1444 75.1041 51.86 73.5139C52.6267 71.9237 53.0356 69.8399 53.0867 67.2626C53.1889 65.6724 53.24 64.2467 53.24 62.9855C53.2911 61.7242 53.2911 60.463 53.24 59.2018C53.24 57.9406 53.1889 56.5423 53.0867 55.0069C52.9845 51.2781 52.0645 48.5637 50.3267 46.8638C48.64 45.1091 46.1099 44.2317 42.7365 44.2317H34.9931V78.1201Z" fill="white"/>
<path fill-rule="evenodd" clip-rule="evenodd" d="M46.0723 2.55133L80.7224 18.6886C81.2216 18.921 81.443 19.5176 81.2171 20.021L78.1545 26.845C77.9286 27.3484 77.3408 27.568 76.8416 27.3356L40.6864 10.4974L4.45454 27.3157C3.95512 27.5475 3.36761 27.3271 3.1423 26.8234L0.0880051 19.9955C-0.1373 19.4918 0.0849184 18.8956 0.584344 18.6637L36.8175 1.84486L36.8177 1.84536L40.7153 0L46.0723 2.55133ZM40.6505 10.4135L40.6526 10.4183L40.6582 10.4058L40.6505 10.4135Z" fill="white"/>
</svg>
