<svg width="55" height="45" viewBox="0 0 55 45" fill="none" xmlns="http://www.w3.org/2000/svg">
<path d="M54.6733 37.7394C55.0816 37.3675 55.1112 36.7351 54.7394 36.3267L48.6798 29.6723C48.308 29.2639 47.6755 29.2343 47.2672 29.6062C46.8588 29.978 46.8292 30.6105 47.2011 31.0188L52.5873 36.9339L46.6723 42.3202C46.2639 42.692 46.2343 43.3245 46.6062 43.7328C46.978 44.1412 47.6105 44.1708 48.0188 43.7989L54.6733 37.7394ZM0.021103 1.20435C2.46398 12.9062 16.723 36.2569 53.9533 37.9989L54.0467 36.0011C17.7837 34.3043 4.24713 11.6609 1.9789 0.795646L0.021103 1.20435Z" fill="white"/>
</svg>
