<svg width="337" height="542" viewBox="0 0 337 542" fill="none" xmlns="http://www.w3.org/2000/svg">
<g opacity="0.72">
<path opacity="0.72" d="M97.8969 4.76557L-204.764 274.659L-209 269.894L93.6608 0L97.8969 4.76557ZM104.469 12.1475L-198.192 282.041L-193.956 286.807L108.705 16.9131L104.469 12.1475ZM115.308 24.2951L-187.352 294.189L-183.116 298.954L119.544 29.0606L115.308 24.2951ZM126.117 36.4426L-176.544 306.336L-172.308 311.102L130.353 41.2083L126.117 36.4426ZM136.956 48.559L-165.705 318.453L-161.469 323.218L141.192 53.3247L136.956 48.559ZM147.764 60.7067L-154.897 330.6L-150.661 335.366L152 65.4722L147.764 60.7067ZM158.603 72.8541L-144.057 342.748L-139.821 347.513L162.84 77.6198L158.603 72.8541ZM169.412 85.0017L-133.249 354.895L-129.013 359.661L173.648 89.7672L169.412 85.0017ZM180.251 97.1182L-122.41 367.012L-118.174 371.777L184.487 101.884L180.251 97.1182ZM191.059 109.266L-111.602 379.159L-107.365 383.925L195.295 114.031L191.059 109.266ZM201.899 121.413L-100.762 391.307L-96.5262 396.072L206.135 126.179L201.899 121.413ZM212.707 133.53L-89.9541 403.454L-85.7179 408.22L216.943 138.326L212.707 133.53ZM223.546 145.677L-79.1146 415.571L-74.8786 420.336L227.782 150.443L223.546 145.677ZM234.354 157.825L-68.3065 427.718L-64.0705 432.484L238.591 162.59L234.354 157.825ZM245.194 169.941L-57.4672 439.835L-53.231 444.6L249.43 174.707L245.194 169.941ZM256.002 182.089L-46.6589 451.982L-42.4229 456.748L260.238 186.854L256.002 182.089ZM266.841 194.236L-35.8196 464.13L-31.5836 468.895L271.077 199.002L266.841 194.236ZM277.65 206.384L-25.0113 476.277L-20.7753 481.043L281.886 211.149L277.65 206.384ZM288.489 218.5L-14.172 488.394L-9.936 493.159L292.725 223.266L288.489 218.5ZM299.297 230.648L-3.36392 500.541L0.872299 505.307L303.533 235.413L299.297 230.648ZM310.136 242.795L7.47557 512.689L11.7116 517.454L314.372 247.561L310.136 242.795ZM320.945 254.912L18.2837 524.805L22.5199 529.571L325.181 259.677L320.945 254.912ZM331.784 267.059L29.1232 536.953L33.3592 541.719L336.02 271.825L331.784 267.059Z" fill="white"/>
</g>
</svg>
