<svg width="445" height="206" viewBox="0 0 445 206" fill="none" xmlns="http://www.w3.org/2000/svg">
<circle cx="15.5" cy="15.5" r="15.5" fill="#92B84D" fill-opacity="0.8"/>
<circle cx="15.5" cy="73.5" r="15.5" fill="#92B84D" fill-opacity="0.7"/>
<circle cx="15.5" cy="131.5" r="15.5" fill="#92B84D" fill-opacity="0.6"/>
<circle cx="15.5" cy="189.5" r="15.5" fill="#92B84D" fill-opacity="0.5"/>
<path d="M65.264 24V20.928C66.288 21.072 67.04 20.864 67.52 20.304C68 19.728 68.24 18.672 68.24 17.136V7.2H79.664V24H76.376V10.368H71.528V17.04C71.528 19.936 70.864 21.896 69.536 22.92C68.4 23.816 66.976 24.176 65.264 24ZM94.2988 19.272H85.2508C85.6508 20.776 86.7788 21.528 88.6348 21.528C89.8188 21.528 90.7148 21.128 91.3228 20.328L93.8188 21.768C92.6348 23.48 90.8908 24.336 88.5868 24.336C86.6028 24.336 85.0108 23.736 83.8108 22.536C82.6108 21.336 82.0107 19.824 82.0107 18C82.0107 16.208 82.6028 14.704 83.7868 13.488C84.9548 12.272 86.4748 11.664 88.3468 11.664C90.1228 11.664 91.5708 12.272 92.6908 13.488C93.8428 14.704 94.4188 16.208 94.4188 18C94.4188 18.336 94.3788 18.76 94.2988 19.272ZM85.2028 16.872H91.3228C91.1468 16.088 90.7868 15.488 90.2428 15.072C89.7148 14.656 89.0828 14.448 88.3468 14.448C87.5148 14.448 86.8268 14.664 86.2828 15.096C85.7388 15.512 85.3788 16.104 85.2028 16.872ZM96.5801 12H104.788V14.976H99.6761V24H96.5801V12ZM112.543 17.928L117.511 24H113.911L109.543 18.552V24H106.447V12H109.543V17.28L113.671 12H117.367L112.543 17.928ZM128.413 22.512C127.197 23.728 125.693 24.336 123.901 24.336C122.109 24.336 120.605 23.728 119.389 22.512C118.173 21.296 117.565 19.792 117.565 18C117.565 16.224 118.173 14.728 119.389 13.512C120.621 12.28 122.125 11.664 123.901 11.664C125.677 11.664 127.181 12.28 128.413 13.512C129.645 14.744 130.261 16.24 130.261 18C130.261 19.776 129.645 21.28 128.413 22.512ZM121.573 20.376C122.197 21 122.973 21.312 123.901 21.312C124.829 21.312 125.605 21 126.229 20.376C126.853 19.752 127.165 18.96 127.165 18C127.165 17.04 126.853 16.248 126.229 15.624C125.605 15 124.829 14.688 123.901 14.688C122.973 14.688 122.197 15 121.573 15.624C120.965 16.264 120.661 17.056 120.661 18C120.661 18.944 120.965 19.736 121.573 20.376ZM145.471 17.88C146.687 18.472 147.295 19.424 147.295 20.736C147.295 21.792 146.863 22.656 145.999 23.328C145.135 24 143.951 24.336 142.447 24.336C140.015 24.336 138.359 23.376 137.479 21.456L139.999 19.968C140.383 21.056 141.207 21.6 142.471 21.6C143.047 21.6 143.487 21.488 143.791 21.264C144.111 21.04 144.271 20.736 144.271 20.352C144.271 19.616 143.799 19.248 142.855 19.248H141.151V16.608H142.447C143.375 16.608 143.839 16.24 143.839 15.504C143.839 15.152 143.703 14.872 143.431 14.664C143.159 14.456 142.799 14.352 142.351 14.352C141.327 14.352 140.583 14.856 140.119 15.864L137.623 14.424C138.535 12.584 140.095 11.664 142.303 11.664C143.679 11.664 144.767 12.016 145.567 12.72C146.383 13.424 146.791 14.264 146.791 15.24C146.791 16.408 146.351 17.288 145.471 17.88ZM158.364 13.416V12H161.46V24H158.364V22.584C157.436 23.752 156.132 24.336 154.452 24.336C152.852 24.336 151.476 23.728 150.324 22.512C149.188 21.28 148.62 19.776 148.62 18C148.62 16.24 149.188 14.744 150.324 13.512C151.476 12.28 152.852 11.664 154.452 11.664C156.132 11.664 157.436 12.248 158.364 13.416ZM152.652 20.448C153.276 21.072 154.068 21.384 155.028 21.384C155.988 21.384 156.78 21.072 157.404 20.448C158.044 19.808 158.364 18.992 158.364 18C158.364 17.008 158.044 16.2 157.404 15.576C156.78 14.936 155.988 14.616 155.028 14.616C154.068 14.616 153.276 14.936 152.652 15.576C152.028 16.2 151.716 17.008 151.716 18C151.716 18.992 152.028 19.808 152.652 20.448ZM170.364 17.928L175.332 24H171.732L167.364 18.552V24H164.268V12H167.364V17.28L171.492 12H175.188L170.364 17.928ZM185.13 13.416V12H188.226V24H185.13V22.584C184.202 23.752 182.898 24.336 181.218 24.336C179.618 24.336 178.242 23.728 177.09 22.512C175.954 21.28 175.386 19.776 175.386 18C175.386 16.24 175.954 14.744 177.09 13.512C178.242 12.28 179.618 11.664 181.218 11.664C182.898 11.664 184.202 12.248 185.13 13.416ZM179.418 20.448C180.042 21.072 180.834 21.384 181.794 21.384C182.754 21.384 183.546 21.072 184.17 20.448C184.81 19.808 185.13 18.992 185.13 18C185.13 17.008 184.81 16.2 184.17 15.576C183.546 14.936 182.754 14.616 181.794 14.616C180.834 14.616 180.042 14.936 179.418 15.576C178.794 16.2 178.482 17.008 178.482 18C178.482 18.992 178.794 19.808 179.418 20.448ZM198.065 17.88C199.281 18.472 199.889 19.424 199.889 20.736C199.889 21.792 199.457 22.656 198.593 23.328C197.729 24 196.545 24.336 195.041 24.336C192.609 24.336 190.953 23.376 190.073 21.456L192.593 19.968C192.977 21.056 193.801 21.6 195.065 21.6C195.641 21.6 196.081 21.488 196.385 21.264C196.705 21.04 196.865 20.736 196.865 20.352C196.865 19.616 196.393 19.248 195.449 19.248H193.745V16.608H195.041C195.969 16.608 196.433 16.24 196.433 15.504C196.433 15.152 196.297 14.872 196.025 14.664C195.753 14.456 195.393 14.352 194.945 14.352C193.921 14.352 193.177 14.856 192.713 15.864L190.217 14.424C191.129 12.584 192.689 11.664 194.897 11.664C196.273 11.664 197.361 12.016 198.161 12.72C198.977 13.424 199.385 14.264 199.385 15.24C199.385 16.408 198.945 17.288 198.065 17.88ZM204.934 15.84H207.262C208.622 15.84 209.718 16.216 210.55 16.968C211.382 17.704 211.798 18.688 211.798 19.92C211.798 21.152 211.382 22.144 210.55 22.896C209.718 23.632 208.622 24 207.262 24H201.838V12H204.934V15.84ZM213.118 24V12H216.214V24H213.118ZM204.934 21.264H207.286C207.718 21.264 208.07 21.144 208.342 20.904C208.63 20.648 208.774 20.32 208.774 19.92C208.774 19.52 208.63 19.192 208.342 18.936C208.07 18.68 207.718 18.552 207.286 18.552H204.934V21.264ZM227.681 17.856C228.801 18.4 229.361 19.312 229.361 20.592C229.361 21.616 229.009 22.44 228.305 23.064C227.601 23.688 226.617 24 225.353 24H219.041V12H224.873C226.121 12 227.097 12.312 227.801 12.936C228.505 13.544 228.857 14.36 228.857 15.384C228.857 16.44 228.465 17.264 227.681 17.856ZM224.585 14.544H221.945V16.704H224.585C225.465 16.704 225.905 16.344 225.905 15.624C225.905 14.904 225.465 14.544 224.585 14.544ZM221.945 21.384H224.993C225.889 21.384 226.337 21 226.337 20.232C226.337 19.896 226.217 19.632 225.977 19.44C225.737 19.248 225.409 19.152 224.993 19.152H221.945V21.384ZM240.419 13.416V12H243.515V24H240.419V22.584C239.491 23.752 238.187 24.336 236.507 24.336C234.907 24.336 233.531 23.728 232.379 22.512C231.243 21.28 230.675 19.776 230.675 18C230.675 16.24 231.243 14.744 232.379 13.512C233.531 12.28 234.907 11.664 236.507 11.664C238.187 11.664 239.491 12.248 240.419 13.416ZM234.707 20.448C235.331 21.072 236.123 21.384 237.083 21.384C238.043 21.384 238.835 21.072 239.459 20.448C240.099 19.808 240.419 18.992 240.419 18C240.419 17.008 240.099 16.2 239.459 15.576C238.835 14.936 238.043 14.616 237.083 14.616C236.123 14.616 235.331 14.936 234.707 15.576C234.083 16.2 233.771 17.008 233.771 18C233.771 18.992 234.083 19.808 234.707 20.448ZM255.298 10.464H248.338V7.776H255.298V10.464ZM249.346 18.816L254.986 12H257.29V24H254.266V17.184L248.626 24H246.322V12H249.346V18.816ZM258.951 12H269.583V14.976H265.839V24H262.743V14.976H258.951V12ZM282.432 19.272H273.384C273.784 20.776 274.912 21.528 276.768 21.528C277.952 21.528 278.848 21.128 279.456 20.328L281.952 21.768C280.768 23.48 279.024 24.336 276.72 24.336C274.736 24.336 273.144 23.736 271.944 22.536C270.744 21.336 270.144 19.824 270.144 18C270.144 16.208 270.736 14.704 271.92 13.488C273.088 12.272 274.608 11.664 276.48 11.664C278.256 11.664 279.704 12.272 280.824 13.488C281.976 14.704 282.552 16.208 282.552 18C282.552 18.336 282.512 18.76 282.432 19.272ZM273.336 16.872H279.456C279.28 16.088 278.92 15.488 278.376 15.072C277.848 14.656 277.216 14.448 276.48 14.448C275.648 14.448 274.96 14.664 274.416 15.096C273.872 15.512 273.512 16.104 273.336 16.872ZM295.873 20.064L298.537 12H301.849L297.481 24C296.265 27.376 294.153 28.976 291.145 28.8V25.92C291.961 25.936 292.601 25.784 293.065 25.464C293.545 25.144 293.929 24.608 294.217 23.856L289.369 12H292.657L295.873 20.064ZM308.566 24.336C306.758 24.336 305.246 23.728 304.03 22.512C302.83 21.296 302.229 19.792 302.229 18C302.229 16.208 302.83 14.704 304.03 13.488C305.246 12.272 306.758 11.664 308.566 11.664C309.734 11.664 310.798 11.944 311.758 12.504C312.718 13.064 313.446 13.816 313.942 14.76L311.278 16.32C311.038 15.824 310.67 15.432 310.174 15.144C309.694 14.856 309.15 14.712 308.542 14.712C307.614 14.712 306.846 15.024 306.238 15.648C305.63 16.256 305.326 17.04 305.326 18C305.326 18.928 305.63 19.712 306.238 20.352C306.846 20.96 307.614 21.264 308.542 21.264C309.166 21.264 309.718 21.128 310.198 20.856C310.694 20.568 311.062 20.176 311.302 19.68L313.99 21.216C313.462 22.176 312.71 22.936 311.734 23.496C310.774 24.056 309.718 24.336 308.566 24.336ZM316.255 12H325.759V24H322.663V14.976H319.351V18.984C319.351 22.68 317.663 24.352 314.287 24V21.096C314.927 21.256 315.415 21.144 315.751 20.76C316.087 20.376 316.255 19.728 316.255 18.816V12ZM333.724 20.064L336.388 12H339.7L335.332 24C334.116 27.376 332.004 28.976 328.996 28.8V25.92C329.812 25.936 330.452 25.784 330.916 25.464C331.396 25.144 331.78 24.608 332.068 23.856L327.22 12H330.508L333.724 20.064ZM341.174 12H349.382V14.976H344.27V24H341.174V12ZM354.065 18.816L359.705 12H362.009V24H358.985V17.184L353.345 24H351.041V12H354.065V18.816Z" fill="#292929"/>
<path d="M66.56 65.2H79.112V82H75.8V68.368H69.872V82H66.56V65.2ZM92.3197 80.512C91.1037 81.728 89.5997 82.336 87.8077 82.336C86.0157 82.336 84.5117 81.728 83.2957 80.512C82.0797 79.296 81.4717 77.792 81.4717 76C81.4717 74.224 82.0797 72.728 83.2957 71.512C84.5277 70.28 86.0317 69.664 87.8077 69.664C89.5837 69.664 91.0877 70.28 92.3197 71.512C93.5517 72.744 94.1677 74.24 94.1677 76C94.1677 77.776 93.5517 79.28 92.3197 80.512ZM85.4797 78.376C86.1037 79 86.8797 79.312 87.8077 79.312C88.7357 79.312 89.5117 79 90.1357 78.376C90.7597 77.752 91.0717 76.96 91.0717 76C91.0717 75.04 90.7597 74.248 90.1357 73.624C89.5117 73 88.7357 72.688 87.8077 72.688C86.8797 72.688 86.1037 73 85.4797 73.624C84.8717 74.264 84.5677 75.056 84.5677 76C84.5677 76.944 84.8717 77.736 85.4797 78.376ZM106.677 70V79.096H108.261V85.216H105.237V82H97.7969V85.216H94.7729V79.096H96.2369C96.9249 78.072 97.2689 76.656 97.2689 74.848V70H106.677ZM99.5489 79.096H103.653V72.784H100.293V74.848C100.293 76.576 100.045 77.992 99.5489 79.096ZM118.872 71.416V70H121.968V82H118.872V80.584C117.944 81.752 116.64 82.336 114.96 82.336C113.36 82.336 111.984 81.728 110.832 80.512C109.696 79.28 109.128 77.776 109.128 76C109.128 74.24 109.696 72.744 110.832 71.512C111.984 70.28 113.36 69.664 114.96 69.664C116.64 69.664 117.944 70.248 118.872 71.416ZM113.16 78.448C113.784 79.072 114.576 79.384 115.536 79.384C116.496 79.384 117.288 79.072 117.912 78.448C118.552 77.808 118.872 76.992 118.872 76C118.872 75.008 118.552 74.2 117.912 73.576C117.288 72.936 116.496 72.616 115.536 72.616C114.576 72.616 113.784 72.936 113.16 73.576C112.536 74.2 112.224 75.008 112.224 76C112.224 76.992 112.536 77.808 113.16 78.448ZM133.415 75.856C134.535 76.4 135.095 77.312 135.095 78.592C135.095 79.616 134.743 80.44 134.039 81.064C133.335 81.688 132.351 82 131.087 82H124.775V70H130.607C131.855 70 132.831 70.312 133.535 70.936C134.239 71.544 134.591 72.36 134.591 73.384C134.591 74.44 134.199 75.264 133.415 75.856ZM130.319 72.544H127.679V74.704H130.319C131.199 74.704 131.639 74.344 131.639 73.624C131.639 72.904 131.199 72.544 130.319 72.544ZM127.679 79.384H130.727C131.623 79.384 132.071 79 132.071 78.232C132.071 77.896 131.951 77.632 131.711 77.44C131.471 77.248 131.143 77.152 130.727 77.152H127.679V79.384ZM146.153 71.416V70H149.249V82H146.153V80.584C145.225 81.752 143.921 82.336 142.241 82.336C140.641 82.336 139.265 81.728 138.113 80.512C136.977 79.28 136.409 77.776 136.409 76C136.409 74.24 136.977 72.744 138.113 71.512C139.265 70.28 140.641 69.664 142.241 69.664C143.921 69.664 145.225 70.248 146.153 71.416ZM140.441 78.448C141.065 79.072 141.857 79.384 142.817 79.384C143.777 79.384 144.569 79.072 145.193 78.448C145.833 77.808 146.153 76.992 146.153 76C146.153 75.008 145.833 74.2 145.193 73.576C144.569 72.936 143.777 72.616 142.817 72.616C141.857 72.616 141.065 72.936 140.441 73.576C139.817 74.2 139.505 75.008 139.505 76C139.505 76.992 139.817 77.808 140.441 78.448ZM161.033 68.464H154.073V65.776H161.033V68.464ZM155.081 76.816L160.721 70H163.025V82H160.001V75.184L154.361 82H152.057V70H155.081V76.816ZM164.685 70H175.317V72.976H171.573V82H168.477V72.976H164.685V70ZM188.166 77.272H179.118C179.518 78.776 180.646 79.528 182.502 79.528C183.686 79.528 184.582 79.128 185.19 78.328L187.686 79.768C186.502 81.48 184.758 82.336 182.454 82.336C180.47 82.336 178.878 81.736 177.678 80.536C176.478 79.336 175.878 77.824 175.878 76C175.878 74.208 176.47 72.704 177.654 71.488C178.822 70.272 180.342 69.664 182.214 69.664C183.99 69.664 185.438 70.272 186.558 71.488C187.71 72.704 188.286 74.208 188.286 76C188.286 76.336 188.246 76.76 188.166 77.272ZM179.07 74.872H185.19C185.014 74.088 184.654 73.488 184.11 73.072C183.582 72.656 182.95 72.448 182.214 72.448C181.382 72.448 180.694 72.664 180.15 73.096C179.606 73.512 179.246 74.104 179.07 74.872ZM196.447 70H207.415V82H204.319V72.904H199.543V82H196.447V70ZM220.476 80.512C219.26 81.728 217.756 82.336 215.964 82.336C214.172 82.336 212.668 81.728 211.452 80.512C210.236 79.296 209.628 77.792 209.628 76C209.628 74.224 210.236 72.728 211.452 71.512C212.684 70.28 214.188 69.664 215.964 69.664C217.74 69.664 219.244 70.28 220.476 71.512C221.708 72.744 222.324 74.24 222.324 76C222.324 77.776 221.708 79.28 220.476 80.512ZM213.636 78.376C214.26 79 215.036 79.312 215.964 79.312C216.892 79.312 217.668 79 218.292 78.376C218.916 77.752 219.228 76.96 219.228 76C219.228 75.04 218.916 74.248 218.292 73.624C217.668 73 216.892 72.688 215.964 72.688C215.036 72.688 214.26 73 213.636 73.624C213.028 74.264 212.724 75.056 212.724 76C212.724 76.944 213.028 77.736 213.636 78.376ZM230.598 75.928L235.566 82H231.966L227.598 76.552V82H224.502V70H227.598V75.28L231.726 70H235.422L230.598 75.928ZM245.364 71.416V70H248.46V82H245.364V80.584C244.436 81.752 243.132 82.336 241.452 82.336C239.852 82.336 238.476 81.728 237.324 80.512C236.188 79.28 235.62 77.776 235.62 76C235.62 74.24 236.188 72.744 237.324 71.512C238.476 70.28 239.852 69.664 241.452 69.664C243.132 69.664 244.436 70.248 245.364 71.416ZM239.652 78.448C240.276 79.072 241.068 79.384 242.028 79.384C242.988 79.384 243.78 79.072 244.404 78.448C245.044 77.808 245.364 76.992 245.364 76C245.364 75.008 245.044 74.2 244.404 73.576C243.78 72.936 242.988 72.616 242.028 72.616C241.068 72.616 240.276 72.936 239.652 73.576C239.028 74.2 238.716 75.008 238.716 76C238.716 76.992 239.028 77.808 239.652 78.448ZM258.3 75.88C259.516 76.472 260.124 77.424 260.124 78.736C260.124 79.792 259.692 80.656 258.828 81.328C257.964 82 256.78 82.336 255.276 82.336C252.844 82.336 251.188 81.376 250.308 79.456L252.828 77.968C253.212 79.056 254.036 79.6 255.3 79.6C255.876 79.6 256.316 79.488 256.62 79.264C256.94 79.04 257.1 78.736 257.1 78.352C257.1 77.616 256.628 77.248 255.684 77.248H253.98V74.608H255.276C256.204 74.608 256.668 74.24 256.668 73.504C256.668 73.152 256.532 72.872 256.26 72.664C255.988 72.456 255.628 72.352 255.18 72.352C254.156 72.352 253.412 72.856 252.948 73.864L250.452 72.424C251.364 70.584 252.924 69.664 255.132 69.664C256.508 69.664 257.596 70.016 258.396 70.72C259.212 71.424 259.62 72.264 259.62 73.24C259.62 74.408 259.18 75.288 258.3 75.88ZM271.192 71.416V70H274.288V82H271.192V80.584C270.264 81.752 268.96 82.336 267.28 82.336C265.68 82.336 264.304 81.728 263.152 80.512C262.016 79.28 261.448 77.776 261.448 76C261.448 74.24 262.016 72.744 263.152 71.512C264.304 70.28 265.68 69.664 267.28 69.664C268.96 69.664 270.264 70.248 271.192 71.416ZM265.48 78.448C266.104 79.072 266.896 79.384 267.856 79.384C268.816 79.384 269.608 79.072 270.232 78.448C270.872 77.808 271.192 76.992 271.192 76C271.192 75.008 270.872 74.2 270.232 73.576C269.608 72.936 268.816 72.616 267.856 72.616C266.896 72.616 266.104 72.936 265.48 73.576C264.856 74.2 264.544 75.008 264.544 76C264.544 76.992 264.856 77.808 265.48 78.448ZM284.968 74.536V70H288.064V82H284.968V77.44H280.192V82H277.096V70H280.192V74.536H284.968ZM293.924 76.816L299.564 70H301.868V82H298.844V75.184L293.204 82H290.9V70H293.924V76.816ZM308.713 70H314.329V82H311.305V78.256H310.225L307.465 82H303.889L306.889 77.896C306.121 77.576 305.505 77.072 305.041 76.384C304.593 75.696 304.369 74.944 304.369 74.128C304.369 73.024 304.769 72.056 305.569 71.224C306.353 70.408 307.401 70 308.713 70ZM311.305 72.76H308.953C308.505 72.76 308.129 72.896 307.825 73.168C307.537 73.44 307.393 73.792 307.393 74.224C307.393 74.656 307.537 75 307.825 75.256C308.129 75.512 308.505 75.64 308.953 75.64H311.305V72.76ZM328.862 82.336C327.054 82.336 325.542 81.728 324.326 80.512C323.126 79.296 322.526 77.792 322.526 76C322.526 74.208 323.126 72.704 324.326 71.488C325.542 70.272 327.054 69.664 328.862 69.664C330.03 69.664 331.094 69.944 332.054 70.504C333.014 71.064 333.742 71.816 334.238 72.76L331.574 74.32C331.334 73.824 330.966 73.432 330.47 73.144C329.99 72.856 329.446 72.712 328.838 72.712C327.91 72.712 327.142 73.024 326.534 73.648C325.926 74.256 325.622 75.04 325.622 76C325.622 76.928 325.926 77.712 326.534 78.352C327.142 78.96 327.91 79.264 328.838 79.264C329.462 79.264 330.014 79.128 330.494 78.856C330.99 78.568 331.358 78.176 331.598 77.68L334.286 79.216C333.758 80.176 333.006 80.936 332.03 81.496C331.07 82.056 330.014 82.336 328.862 82.336ZM342.84 75.28V70H345.936V82H342.84V78.184C341.944 78.472 340.992 78.616 339.984 78.616C338.512 78.616 337.344 78.24 336.48 77.488C335.616 76.736 335.184 75.672 335.184 74.296V70H338.28V73.936C338.28 75.136 339.024 75.736 340.512 75.736C341.392 75.736 342.168 75.584 342.84 75.28ZM360.408 77.272H351.36C351.76 78.776 352.888 79.528 354.744 79.528C355.928 79.528 356.824 79.128 357.432 78.328L359.928 79.768C358.744 81.48 357 82.336 354.696 82.336C352.712 82.336 351.12 81.736 349.92 80.536C348.72 79.336 348.12 77.824 348.12 76C348.12 74.208 348.712 72.704 349.896 71.488C351.064 70.272 352.584 69.664 354.456 69.664C356.232 69.664 357.68 70.272 358.8 71.488C359.952 72.704 360.528 74.208 360.528 76C360.528 76.336 360.488 76.76 360.408 77.272ZM351.312 74.872H357.432C357.256 74.088 356.896 73.488 356.352 73.072C355.824 72.656 355.192 72.448 354.456 72.448C353.624 72.448 352.936 72.664 352.392 73.096C351.848 73.512 351.488 74.104 351.312 74.872ZM361.045 70H371.677V72.976H367.933V82H364.837V72.976H361.045V70ZM380.668 75.28V70H383.764V82H380.668V78.184C379.772 78.472 378.82 78.616 377.812 78.616C376.34 78.616 375.172 78.24 374.308 77.488C373.444 76.736 373.012 75.672 373.012 74.296V70H376.108V73.936C376.108 75.136 376.852 75.736 378.34 75.736C379.22 75.736 379.996 75.584 380.668 75.28ZM389.596 76.816L395.236 70H397.54V82H394.516V75.184L388.876 82H386.572V70H389.596V76.816ZM406.473 75.928L411.441 82H407.841L403.473 76.552V82H400.377V70H403.473V75.28L407.601 70H411.297L406.473 75.928ZM422.343 80.512C421.127 81.728 419.623 82.336 417.831 82.336C416.039 82.336 414.535 81.728 413.319 80.512C412.103 79.296 411.495 77.792 411.495 76C411.495 74.224 412.103 72.728 413.319 71.512C414.551 70.28 416.055 69.664 417.831 69.664C419.607 69.664 421.111 70.28 422.343 71.512C423.575 72.744 424.191 74.24 424.191 76C424.191 77.776 423.575 79.28 422.343 80.512ZM415.503 78.376C416.127 79 416.903 79.312 417.831 79.312C418.759 79.312 419.535 79 420.159 78.376C420.783 77.752 421.095 76.96 421.095 76C421.095 75.04 420.783 74.248 420.159 73.624C419.535 73 418.759 72.688 417.831 72.688C416.903 72.688 416.127 73 415.503 73.624C414.895 74.264 414.591 75.056 414.591 76C414.591 76.944 414.895 77.736 415.503 78.376ZM435.009 75.856C436.129 76.4 436.689 77.312 436.689 78.592C436.689 79.616 436.337 80.44 435.633 81.064C434.929 81.688 433.945 82 432.681 82H426.369V70H432.201C433.449 70 434.425 70.312 435.129 70.936C435.833 71.544 436.185 72.36 436.185 73.384C436.185 74.44 435.793 75.264 435.009 75.856ZM431.913 72.544H429.273V74.704H431.913C432.793 74.704 433.233 74.344 433.233 73.624C433.233 72.904 432.793 72.544 431.913 72.544ZM429.273 79.384H432.321C433.217 79.384 433.665 79 433.665 78.232C433.665 77.896 433.545 77.632 433.305 77.44C433.065 77.248 432.737 77.152 432.321 77.152H429.273V79.384Z" fill="#292929"/>
<path d="M80.696 137.816C79 139.496 76.936 140.336 74.504 140.336C72.072 140.336 70.008 139.496 68.312 137.816C66.632 136.104 65.792 134.032 65.792 131.6C65.792 129.152 66.632 127.088 68.312 125.408C70.008 123.712 72.072 122.864 74.504 122.864C76.936 122.864 79 123.712 80.696 125.408C82.392 127.088 83.24 129.152 83.24 131.6C83.24 134.048 82.392 136.12 80.696 137.816ZM70.64 135.56C71.664 136.584 72.952 137.096 74.504 137.096C76.056 137.096 77.344 136.584 78.368 135.56C79.408 134.52 79.928 133.2 79.928 131.6C79.928 130 79.408 128.68 78.368 127.64C77.328 126.6 76.04 126.08 74.504 126.08C72.968 126.08 71.68 126.6 70.64 127.64C69.6 128.68 69.08 130 69.08 131.6C69.08 133.2 69.6 134.52 70.64 135.56ZM85.4238 128H96.3918V140H93.2958V130.904H88.5198V140H85.4238V128ZM100.021 128H109.525V140H106.429V130.976H103.117V134.984C103.117 138.68 101.429 140.352 98.0525 140V137.096C98.6925 137.256 99.1805 137.144 99.5165 136.76C99.8525 136.376 100.021 135.728 100.021 134.816V128ZM121.45 129.416V128H124.546V140H121.45V138.584C120.522 139.752 119.218 140.336 117.538 140.336C115.938 140.336 114.562 139.728 113.41 138.512C112.274 137.28 111.706 135.776 111.706 134C111.706 132.24 112.274 130.744 113.41 129.512C114.562 128.28 115.938 127.664 117.538 127.664C119.218 127.664 120.522 128.248 121.45 129.416ZM115.738 136.448C116.362 137.072 117.154 137.384 118.114 137.384C119.074 137.384 119.866 137.072 120.49 136.448C121.13 135.808 121.45 134.992 121.45 134C121.45 133.008 121.13 132.2 120.49 131.576C119.866 130.936 119.074 130.616 118.114 130.616C117.154 130.616 116.362 130.936 115.738 131.576C115.114 132.2 114.802 133.008 114.802 134C114.802 134.992 115.114 135.808 115.738 136.448ZM134.434 133.28V128H137.53V140H134.434V136.184C133.538 136.472 132.586 136.616 131.578 136.616C130.106 136.616 128.938 136.24 128.074 135.488C127.21 134.736 126.778 133.672 126.778 132.296V128H129.874V131.936C129.874 133.136 130.618 133.736 132.105 133.736C132.986 133.736 133.762 133.584 134.434 133.28ZM143.362 134.816L149.002 128H151.306V140H148.282V133.184L142.642 140H140.338V128H143.362V134.816ZM162.783 133.856C163.903 134.4 164.463 135.312 164.463 136.592C164.463 137.616 164.111 138.44 163.407 139.064C162.703 139.688 161.719 140 160.455 140H154.143V128H159.975C161.223 128 162.199 128.312 162.903 128.936C163.607 129.544 163.959 130.36 163.959 131.384C163.959 132.44 163.567 133.264 162.783 133.856ZM159.687 130.544H157.047V132.704H159.687C160.567 132.704 161.007 132.344 161.007 131.624C161.007 130.904 160.567 130.544 159.687 130.544ZM157.047 137.384H160.095C160.991 137.384 161.439 137 161.439 136.232C161.439 135.896 161.319 135.632 161.079 135.44C160.839 135.248 160.511 135.152 160.095 135.152H157.047V137.384ZM175.52 129.416V128H178.616V140H175.52V138.584C174.592 139.752 173.288 140.336 171.608 140.336C170.008 140.336 168.632 139.728 167.48 138.512C166.344 137.28 165.776 135.776 165.776 134C165.776 132.24 166.344 130.744 167.48 129.512C168.632 128.28 170.008 127.664 171.608 127.664C173.288 127.664 174.592 128.248 175.52 129.416ZM169.808 136.448C170.432 137.072 171.224 137.384 172.184 137.384C173.144 137.384 173.936 137.072 174.56 136.448C175.2 135.808 175.52 134.992 175.52 134C175.52 133.008 175.2 132.2 174.56 131.576C173.936 130.936 173.144 130.616 172.184 130.616C171.224 130.616 170.432 130.936 169.808 131.576C169.184 132.2 168.872 133.008 168.872 134C168.872 134.992 169.184 135.808 169.808 136.448ZM190.4 126.464H183.44V123.776H190.4V126.464ZM184.448 134.816L190.088 128H192.392V140H189.368V133.184L183.728 140H181.424V128H184.448V134.816ZM194.053 128H204.685V130.976H200.941V140H197.845V130.976H194.053V128ZM217.533 135.272H208.485C208.885 136.776 210.013 137.528 211.869 137.528C213.053 137.528 213.949 137.128 214.557 136.328L217.053 137.768C215.869 139.48 214.125 140.336 211.821 140.336C209.837 140.336 208.245 139.736 207.045 138.536C205.845 137.336 205.245 135.824 205.245 134C205.245 132.208 205.837 130.704 207.021 129.488C208.189 128.272 209.709 127.664 211.581 127.664C213.357 127.664 214.805 128.272 215.925 129.488C217.077 130.704 217.653 132.208 217.653 134C217.653 134.336 217.613 134.76 217.533 135.272ZM208.437 132.872H214.557C214.381 132.088 214.021 131.488 213.477 131.072C212.949 130.656 212.317 130.448 211.581 130.448C210.749 130.448 210.061 130.664 209.517 131.096C208.973 131.512 208.613 132.104 208.437 132.872ZM231.526 140.336C229.718 140.336 228.206 139.728 226.99 138.512C225.79 137.296 225.19 135.792 225.19 134C225.19 132.208 225.79 130.704 226.99 129.488C228.206 128.272 229.718 127.664 231.526 127.664C232.694 127.664 233.758 127.944 234.718 128.504C235.678 129.064 236.406 129.816 236.902 130.76L234.238 132.32C233.998 131.824 233.63 131.432 233.134 131.144C232.654 130.856 232.11 130.712 231.502 130.712C230.574 130.712 229.806 131.024 229.198 131.648C228.59 132.256 228.286 133.04 228.286 134C228.286 134.928 228.59 135.712 229.198 136.352C229.806 136.96 230.574 137.264 231.502 137.264C232.126 137.264 232.678 137.128 233.158 136.856C233.654 136.568 234.022 136.176 234.262 135.68L236.95 137.216C236.422 138.176 235.67 138.936 234.694 139.496C233.734 140.056 232.678 140.336 231.526 140.336ZM245.504 133.28V128H248.6V140H245.504V136.184C244.608 136.472 243.656 136.616 242.648 136.616C241.176 136.616 240.008 136.24 239.144 135.488C238.28 134.736 237.848 133.672 237.848 132.296V128H240.944V131.936C240.944 133.136 241.688 133.736 243.176 133.736C244.056 133.736 244.832 133.584 245.504 133.28ZM263.072 135.272H254.024C254.424 136.776 255.552 137.528 257.408 137.528C258.592 137.528 259.488 137.128 260.096 136.328L262.592 137.768C261.408 139.48 259.664 140.336 257.36 140.336C255.376 140.336 253.784 139.736 252.584 138.536C251.384 137.336 250.784 135.824 250.784 134C250.784 132.208 251.376 130.704 252.56 129.488C253.728 128.272 255.248 127.664 257.12 127.664C258.896 127.664 260.344 128.272 261.464 129.488C262.616 130.704 263.192 132.208 263.192 134C263.192 134.336 263.152 134.76 263.072 135.272ZM253.976 132.872H260.096C259.92 132.088 259.56 131.488 259.016 131.072C258.488 130.656 257.856 130.448 257.12 130.448C256.288 130.448 255.6 130.664 255.056 131.096C254.512 131.512 254.152 132.104 253.976 132.872ZM263.709 128H274.341V130.976H270.597V140H267.501V130.976H263.709V128ZM284.645 129.416V128H287.741V140H284.645V138.584C283.717 139.752 282.413 140.336 280.733 140.336C279.133 140.336 277.757 139.728 276.605 138.512C275.469 137.28 274.901 135.776 274.901 134C274.901 132.24 275.469 130.744 276.605 129.512C277.757 128.28 279.133 127.664 280.733 127.664C282.413 127.664 283.717 128.248 284.645 129.416ZM278.933 136.448C279.557 137.072 280.349 137.384 281.309 137.384C282.269 137.384 283.061 137.072 283.685 136.448C284.325 135.808 284.645 134.992 284.645 134C284.645 133.008 284.325 132.2 283.685 131.576C283.061 130.936 282.269 130.616 281.309 130.616C280.349 130.616 279.557 130.936 278.933 131.576C278.309 132.2 277.997 133.008 277.997 134C277.997 134.992 278.309 135.808 278.933 136.448Z" fill="#292929"/>
<path d="M72.536 189.312L75.848 181.2H79.16L74.12 193.368C72.776 196.632 70.568 198.176 67.496 198V194.904C68.376 194.984 69.088 194.864 69.632 194.544C70.192 194.224 70.664 193.688 71.048 192.936L65.552 181.2H68.864L72.536 189.312ZM86.4558 191.88C87.6718 192.472 88.2798 193.424 88.2798 194.736C88.2798 195.792 87.8478 196.656 86.9838 197.328C86.1198 198 84.9358 198.336 83.4318 198.336C80.9998 198.336 79.3438 197.376 78.4638 195.456L80.9838 193.968C81.3678 195.056 82.1918 195.6 83.4558 195.6C84.0318 195.6 84.4718 195.488 84.7758 195.264C85.0958 195.04 85.2558 194.736 85.2558 194.352C85.2558 193.616 84.7838 193.248 83.8398 193.248H82.1358V190.608H83.4318C84.3598 190.608 84.8238 190.24 84.8238 189.504C84.8238 189.152 84.6878 188.872 84.4158 188.664C84.1438 188.456 83.7838 188.352 83.3358 188.352C82.3118 188.352 81.5678 188.856 81.1038 189.864L78.6078 188.424C79.5198 186.584 81.0798 185.664 83.2878 185.664C84.6638 185.664 85.7518 186.016 86.5518 186.72C87.3678 187.424 87.7758 188.264 87.7758 189.24C87.7758 190.408 87.3358 191.288 86.4558 191.88ZM98.1005 190.536V186H101.197V198H98.1005V193.44H93.3245V198H90.2285V186H93.3245V190.536H98.1005ZM113.153 187.416V186H116.249V198H113.153V196.584C112.225 197.752 110.921 198.336 109.241 198.336C107.641 198.336 106.265 197.728 105.113 196.512C103.977 195.28 103.409 193.776 103.409 192C103.409 190.24 103.977 188.744 105.113 187.512C106.265 186.28 107.641 185.664 109.241 185.664C110.921 185.664 112.225 186.248 113.153 187.416ZM107.441 194.448C108.065 195.072 108.857 195.384 109.817 195.384C110.777 195.384 111.569 195.072 112.193 194.448C112.833 193.808 113.153 192.992 113.153 192C113.153 191.008 112.833 190.2 112.193 189.576C111.569 188.936 110.777 188.616 109.817 188.616C108.857 188.616 108.065 188.936 107.441 189.576C106.817 190.2 106.505 191.008 106.505 192C106.505 192.992 106.817 193.808 107.441 194.448ZM127.697 191.856C128.817 192.4 129.377 193.312 129.377 194.592C129.377 195.616 129.025 196.44 128.321 197.064C127.617 197.688 126.633 198 125.369 198H119.057V186H124.889C126.137 186 127.113 186.312 127.817 186.936C128.521 187.544 128.873 188.36 128.873 189.384C128.873 190.44 128.481 191.264 127.697 191.856ZM124.601 188.544H121.961V190.704H124.601C125.481 190.704 125.921 190.344 125.921 189.624C125.921 188.904 125.481 188.544 124.601 188.544ZM121.961 195.384H125.009C125.905 195.384 126.353 195 126.353 194.232C126.353 193.896 126.233 193.632 125.993 193.44C125.753 193.248 125.425 193.152 125.009 193.152H121.961V195.384ZM140.434 187.416V186H143.53V198H140.434V196.584C139.506 197.752 138.202 198.336 136.522 198.336C134.922 198.336 133.546 197.728 132.394 196.512C131.258 195.28 130.69 193.776 130.69 192C130.69 190.24 131.258 188.744 132.394 187.512C133.546 186.28 134.922 185.664 136.522 185.664C138.202 185.664 139.506 186.248 140.434 187.416ZM134.722 194.448C135.346 195.072 136.138 195.384 137.098 195.384C138.058 195.384 138.85 195.072 139.474 194.448C140.114 193.808 140.434 192.992 140.434 192C140.434 191.008 140.114 190.2 139.474 189.576C138.85 188.936 138.058 188.616 137.098 188.616C136.138 188.616 135.346 188.936 134.722 189.576C134.098 190.2 133.786 191.008 133.786 192C133.786 192.992 134.098 193.808 134.722 194.448ZM155.314 184.464H148.354V181.776H155.314V184.464ZM149.362 192.816L155.002 186H157.306V198H154.282V191.184L148.642 198H146.338V186H149.362V192.816ZM158.967 186H169.599V188.976H165.855V198H162.759V188.976H158.967V186ZM182.447 193.272H173.399C173.799 194.776 174.927 195.528 176.783 195.528C177.967 195.528 178.863 195.128 179.471 194.328L181.967 195.768C180.783 197.48 179.039 198.336 176.735 198.336C174.751 198.336 173.159 197.736 171.959 196.536C170.759 195.336 170.159 193.824 170.159 192C170.159 190.208 170.751 188.704 171.935 187.488C173.103 186.272 174.623 185.664 176.495 185.664C178.271 185.664 179.719 186.272 180.839 187.488C181.991 188.704 182.567 190.208 182.567 192C182.567 192.336 182.527 192.76 182.447 193.272ZM173.351 190.872H179.471C179.295 190.088 178.935 189.488 178.391 189.072C177.863 188.656 177.231 188.448 176.495 188.448C175.663 188.448 174.975 188.664 174.431 189.096C173.887 189.512 173.527 190.104 173.351 190.872ZM199.369 191.856C200.489 192.4 201.049 193.312 201.049 194.592C201.049 195.616 200.697 196.44 199.993 197.064C199.289 197.688 198.305 198 197.041 198H190.729V186H196.561C197.809 186 198.785 186.312 199.489 186.936C200.193 187.544 200.545 188.36 200.545 189.384C200.545 190.44 200.153 191.264 199.369 191.856ZM196.273 188.544H193.633V190.704H196.273C197.153 190.704 197.593 190.344 197.593 189.624C197.593 188.904 197.153 188.544 196.273 188.544ZM193.633 195.384H196.681C197.577 195.384 198.025 195 198.025 194.232C198.025 193.896 197.905 193.632 197.665 193.44C197.425 193.248 197.097 193.152 196.681 193.152H193.633V195.384ZM212.106 187.416V186H215.202V198H212.106V196.584C211.178 197.752 209.874 198.336 208.194 198.336C206.594 198.336 205.218 197.728 204.066 196.512C202.93 195.28 202.362 193.776 202.362 192C202.362 190.24 202.93 188.744 204.066 187.512C205.218 186.28 206.594 185.664 208.194 185.664C209.874 185.664 211.178 186.248 212.106 187.416ZM206.394 194.448C207.018 195.072 207.81 195.384 208.77 195.384C209.73 195.384 210.522 195.072 211.146 194.448C211.786 193.808 212.106 192.992 212.106 192C212.106 191.008 211.786 190.2 211.146 189.576C210.522 188.936 209.73 188.616 208.77 188.616C207.81 188.616 207.018 188.936 206.394 189.576C205.77 190.2 205.458 191.008 205.458 192C205.458 192.992 205.77 193.808 206.394 194.448ZM229.866 191.928L234.21 198H230.73L227.058 192.624V198H224.034V192.624L220.362 198H216.906L221.226 191.928L217.146 186H220.602L224.034 191.208V186H227.058V191.208L230.49 186H233.97L229.866 191.928ZM243.788 190.536V186H246.884V198H243.788V193.44H239.012V198H235.916V186H239.012V190.536H243.788ZM252.817 189.84H255.145C256.505 189.84 257.601 190.216 258.433 190.968C259.265 191.704 259.681 192.688 259.681 193.92C259.681 195.152 259.265 196.144 258.433 196.896C257.601 197.632 256.505 198 255.145 198H249.721V186H252.817V189.84ZM261.001 198V186H264.097V198H261.001ZM252.817 195.264H255.169C255.601 195.264 255.953 195.144 256.225 194.904C256.513 194.648 256.657 194.32 256.657 193.92C256.657 193.52 256.513 193.192 256.225 192.936C255.953 192.68 255.601 192.552 255.169 192.552H252.817V195.264ZM278.588 193.272H269.54C269.94 194.776 271.068 195.528 272.924 195.528C274.108 195.528 275.004 195.128 275.612 194.328L278.108 195.768C276.924 197.48 275.18 198.336 272.876 198.336C270.892 198.336 269.3 197.736 268.1 196.536C266.9 195.336 266.3 193.824 266.3 192C266.3 190.208 266.892 188.704 268.076 187.488C269.244 186.272 270.764 185.664 272.636 185.664C274.412 185.664 275.86 186.272 276.98 187.488C278.132 188.704 278.708 190.208 278.708 192C278.708 192.336 278.668 192.76 278.588 193.272ZM269.492 190.872H275.612C275.436 190.088 275.076 189.488 274.532 189.072C274.004 188.656 273.372 188.448 272.636 188.448C271.804 188.448 271.116 188.664 270.572 189.096C270.028 189.512 269.668 190.104 269.492 190.872ZM292.581 198.336C290.773 198.336 289.261 197.728 288.045 196.512C286.845 195.296 286.245 193.792 286.245 192C286.245 190.208 286.845 188.704 288.045 187.488C289.261 186.272 290.773 185.664 292.581 185.664C293.749 185.664 294.813 185.944 295.773 186.504C296.733 187.064 297.461 187.816 297.957 188.76L295.293 190.32C295.053 189.824 294.685 189.432 294.189 189.144C293.709 188.856 293.165 188.712 292.557 188.712C291.629 188.712 290.861 189.024 290.253 189.648C289.645 190.256 289.341 191.04 289.341 192C289.341 192.928 289.645 193.712 290.253 194.352C290.861 194.96 291.629 195.264 292.557 195.264C293.181 195.264 293.733 195.128 294.213 194.856C294.709 194.568 295.077 194.176 295.317 193.68L298.005 195.216C297.477 196.176 296.725 196.936 295.749 197.496C294.789 198.056 293.733 198.336 292.581 198.336ZM309.679 196.512C308.463 197.728 306.959 198.336 305.167 198.336C303.375 198.336 301.871 197.728 300.655 196.512C299.439 195.296 298.831 193.792 298.831 192C298.831 190.224 299.439 188.728 300.655 187.512C301.887 186.28 303.391 185.664 305.167 185.664C306.943 185.664 308.447 186.28 309.679 187.512C310.911 188.744 311.527 190.24 311.527 192C311.527 193.776 310.911 195.28 309.679 196.512ZM302.839 194.376C303.463 195 304.239 195.312 305.167 195.312C306.095 195.312 306.871 195 307.495 194.376C308.119 193.752 308.431 192.96 308.431 192C308.431 191.04 308.119 190.248 307.495 189.624C306.871 189 306.095 188.688 305.167 188.688C304.239 188.688 303.463 189 302.839 189.624C302.231 190.264 301.927 191.056 301.927 192C301.927 192.944 302.231 193.736 302.839 194.376ZM319.393 198.336C317.505 198.336 315.977 197.728 314.809 196.512C313.657 195.296 313.081 193.752 313.081 191.88C313.081 189.848 313.385 188.272 313.993 187.152C314.585 186.032 315.809 185.016 317.665 184.104C317.713 184.072 317.801 184.024 317.929 183.96C318.073 183.896 318.217 183.832 318.361 183.768C318.521 183.704 318.673 183.64 318.817 183.576L319.825 183.072C320.065 182.96 320.321 182.816 320.593 182.64C320.993 182.4 321.289 182.152 321.481 181.896C321.673 181.64 321.881 181.256 322.105 180.744L324.649 182.208C324.441 183.184 323.969 183.944 323.233 184.488C322.481 185.032 321.393 185.576 319.969 186.12C318.977 186.504 318.241 186.896 317.761 187.296C317.281 187.696 316.937 188.184 316.729 188.76C317.609 187.848 318.809 187.392 320.329 187.392C321.673 187.392 322.857 187.88 323.881 188.856C324.921 189.816 325.441 191.096 325.441 192.696C325.441 194.344 324.881 195.696 323.761 196.752C322.657 197.808 321.201 198.336 319.393 198.336ZM319.345 189.864C318.545 189.864 317.841 190.112 317.233 190.608C316.625 191.12 316.321 191.784 316.321 192.6C316.321 193.448 316.609 194.144 317.185 194.688C317.777 195.232 318.505 195.504 319.369 195.504C320.249 195.504 320.961 195.24 321.505 194.712C322.065 194.184 322.345 193.512 322.345 192.696C322.345 191.88 322.065 191.208 321.505 190.68C320.945 190.136 320.225 189.864 319.345 189.864ZM330.418 189.84H332.746C334.106 189.84 335.202 190.216 336.034 190.968C336.866 191.704 337.282 192.688 337.282 193.92C337.282 195.152 336.866 196.144 336.034 196.896C335.202 197.632 334.106 198 332.746 198H327.322V186H330.418V189.84ZM338.602 198V186H341.698V198H338.602ZM330.418 195.264H332.77C333.202 195.264 333.554 195.144 333.826 194.904C334.114 194.648 334.258 194.32 334.258 193.92C334.258 193.52 334.114 193.192 333.826 192.936C333.554 192.68 333.202 192.552 332.77 192.552H330.418V195.264ZM343.349 186H353.981V188.976H350.237V198H347.141V188.976H343.349V186ZM358.659 192.816L364.299 186H366.603V198H363.579V191.184L357.939 198H355.635V186H358.659V192.816ZM373.447 186H379.063V198H376.039V194.256H374.959L372.199 198H368.623L371.623 193.896C370.855 193.576 370.239 193.072 369.775 192.384C369.327 191.696 369.103 190.944 369.103 190.128C369.103 189.024 369.503 188.056 370.303 187.224C371.087 186.408 372.135 186 373.447 186ZM376.039 188.76H373.687C373.239 188.76 372.863 188.896 372.559 189.168C372.271 189.44 372.127 189.792 372.127 190.224C372.127 190.656 372.271 191 372.559 191.256C372.863 191.512 373.239 191.64 373.687 191.64H376.039V188.76ZM398.685 186V195.096H400.269V201.216H397.245V198H389.805V201.216H386.781V195.096H388.245C388.933 194.072 389.277 192.656 389.277 190.848V186H398.685ZM391.557 195.096H395.661V188.784H392.301V190.848C392.301 192.576 392.053 193.992 391.557 195.096ZM411.984 196.512C410.768 197.728 409.264 198.336 407.472 198.336C405.68 198.336 404.176 197.728 402.96 196.512C401.744 195.296 401.136 193.792 401.136 192C401.136 190.224 401.744 188.728 402.96 187.512C404.192 186.28 405.696 185.664 407.472 185.664C409.248 185.664 410.752 186.28 411.984 187.512C413.216 188.744 413.832 190.24 413.832 192C413.832 193.776 413.216 195.28 411.984 196.512ZM405.144 194.376C405.768 195 406.544 195.312 407.472 195.312C408.4 195.312 409.176 195 409.8 194.376C410.424 193.752 410.736 192.96 410.736 192C410.736 191.04 410.424 190.248 409.8 189.624C409.176 189 408.4 188.688 407.472 188.688C406.544 188.688 405.768 189 405.144 189.624C404.536 190.264 404.232 191.056 404.232 192C404.232 192.944 404.536 193.736 405.144 194.376ZM425.442 186H428.49V198H425.49V190.992L422.442 195.792H422.058L418.986 190.944V198H416.01V186H419.058L422.25 191.04L425.442 186ZM440.434 187.416V186H443.53V198H440.434V196.584C439.506 197.752 438.202 198.336 436.522 198.336C434.922 198.336 433.546 197.728 432.394 196.512C431.258 195.28 430.69 193.776 430.69 192C430.69 190.24 431.258 188.744 432.394 187.512C433.546 186.28 434.922 185.664 436.522 185.664C438.202 185.664 439.506 186.248 440.434 187.416ZM434.722 194.448C435.346 195.072 436.138 195.384 437.098 195.384C438.058 195.384 438.85 195.072 439.474 194.448C440.114 193.808 440.434 192.992 440.434 192C440.434 191.008 440.114 190.2 439.474 189.576C438.85 188.936 438.058 188.616 437.098 188.616C436.138 188.616 435.346 188.936 434.722 189.576C434.098 190.2 433.786 191.008 433.786 192C433.786 192.992 434.098 193.808 434.722 194.448Z" fill="#292929"/>
</svg>
