<svg width="112" height="76" viewBox="0 0 112 76" fill="none" xmlns="http://www.w3.org/2000/svg">
<path d="M109.07 5.86072C107.455 5.86072 106.139 4.54505 106.139 2.93036C106.139 1.31567 107.455 0 109.07 0C110.684 0 112 1.31567 112 2.93036C112 4.55502 110.684 5.86072 109.07 5.86072ZM112 20.4627C112 18.848 110.684 17.5323 109.07 17.5323C107.455 17.5323 106.139 18.848 106.139 20.4627C106.139 22.0774 107.455 23.3931 109.07 23.3931C110.684 23.3931 112 22.0873 112 20.4627ZM112 37.995C112 36.3803 110.684 35.0647 109.07 35.0647C107.455 35.0647 106.139 36.3803 106.139 37.995C106.139 39.6097 107.455 40.9254 109.07 40.9254C110.684 40.9353 112 39.6197 112 37.995ZM112 55.5373C112 53.9226 110.684 52.6069 109.07 52.6069C107.455 52.6069 106.139 53.9226 106.139 55.5373C106.139 57.152 107.455 58.4677 109.07 58.4677C110.684 58.4677 112 57.152 112 55.5373ZM112 73.0696C112 71.455 110.684 70.1393 109.07 70.1393C107.455 70.1393 106.139 71.455 106.139 73.0696C106.139 74.6843 107.455 76 109.07 76C110.684 76 112 74.6843 112 73.0696ZM94.4677 2.93036C94.4677 1.31567 93.152 0 91.5373 0C89.9226 0 88.6069 1.31567 88.6069 2.93036C88.6069 4.54505 89.9226 5.86072 91.5373 5.86072C93.152 5.86072 94.4677 4.55502 94.4677 2.93036ZM94.4677 20.4627C94.4677 18.848 93.152 17.5323 91.5373 17.5323C89.9226 17.5323 88.6069 18.848 88.6069 20.4627C88.6069 22.0774 89.9226 23.3931 91.5373 23.3931C93.152 23.3931 94.4677 22.0873 94.4677 20.4627ZM94.4677 37.995C94.4677 36.3803 93.152 35.0647 91.5373 35.0647C89.9226 35.0647 88.6069 36.3803 88.6069 37.995C88.6069 39.6097 89.9226 40.9254 91.5373 40.9254C93.152 40.9353 94.4677 39.6197 94.4677 37.995ZM94.4677 55.5373C94.4677 53.9226 93.152 52.6069 91.5373 52.6069C89.9226 52.6069 88.6069 53.9226 88.6069 55.5373C88.6069 57.152 89.9226 58.4677 91.5373 58.4677C93.152 58.4677 94.4677 57.152 94.4677 55.5373ZM94.4677 73.0696C94.4677 71.455 93.152 70.1393 91.5373 70.1393C89.9226 70.1393 88.6069 71.455 88.6069 73.0696C88.6069 74.6843 89.9226 76 91.5373 76C93.152 76 94.4677 74.6843 94.4677 73.0696ZM76.9254 2.93036C76.9254 1.31567 75.6097 0 73.995 0C72.3803 0 71.0647 1.31567 71.0647 2.93036C71.0647 4.54505 72.3803 5.86072 73.995 5.86072C75.6197 5.86072 76.9254 4.55502 76.9254 2.93036ZM76.9254 20.4627C76.9254 18.848 75.6097 17.5323 73.995 17.5323C72.3803 17.5323 71.0647 18.848 71.0647 20.4627C71.0647 22.0774 72.3803 23.3931 73.995 23.3931C75.6197 23.3931 76.9254 22.0873 76.9254 20.4627ZM76.9254 37.995C76.9254 36.3803 75.6097 35.0647 73.995 35.0647C72.3803 35.0647 71.0647 36.3803 71.0647 37.995C71.0647 39.6097 72.3803 40.9254 73.995 40.9254C75.6197 40.9353 76.9254 39.6197 76.9254 37.995ZM76.9254 55.5373C76.9254 53.9226 75.6097 52.6069 73.995 52.6069C72.3803 52.6069 71.0647 53.9226 71.0647 55.5373C71.0647 57.152 72.3803 58.4677 73.995 58.4677C75.6197 58.4677 76.9254 57.152 76.9254 55.5373ZM76.9254 73.0696C76.9254 71.455 75.6097 70.1393 73.995 70.1393C72.3803 70.1393 71.0647 71.455 71.0647 73.0696C71.0647 74.6843 72.3803 76 73.995 76C75.6197 76 76.9254 74.6843 76.9254 73.0696ZM59.393 2.93036C59.393 1.31567 58.0773 0 56.4627 0C54.848 0 53.5324 1.31567 53.5324 2.93036C53.5324 4.54505 54.848 5.86072 56.4627 5.86072C58.0873 5.86072 59.393 4.55502 59.393 2.93036ZM59.393 20.4627C59.393 18.848 58.0773 17.5323 56.4627 17.5323C54.848 17.5323 53.5324 18.848 53.5324 20.4627C53.5324 22.0774 54.848 23.3931 56.4627 23.3931C58.0873 23.3931 59.393 22.0873 59.393 20.4627ZM59.393 37.995C59.393 36.3803 58.0773 35.0647 56.4627 35.0647C54.848 35.0647 53.5324 36.3803 53.5324 37.995C53.5324 39.6097 54.848 40.9254 56.4627 40.9254C58.0873 40.9353 59.393 39.6197 59.393 37.995ZM59.393 55.5373C59.393 53.9226 58.0773 52.6069 56.4627 52.6069C54.848 52.6069 53.5324 53.9226 53.5324 55.5373C53.5324 57.152 54.848 58.4677 56.4627 58.4677C58.0873 58.4677 59.393 57.152 59.393 55.5373ZM59.393 73.0696C59.393 71.455 58.0773 70.1393 56.4627 70.1393C54.848 70.1393 53.5324 71.455 53.5324 73.0696C53.5324 74.6843 54.848 76 56.4627 76C58.0873 76 59.393 74.6843 59.393 73.0696ZM41.8607 2.93036C41.8607 1.31567 40.545 0 38.9304 0C37.3157 0 36 1.31567 36 2.93036C36 4.54505 37.3157 5.86072 38.9304 5.86072C40.545 5.86072 41.8607 4.55502 41.8607 2.93036ZM41.8607 20.4627C41.8607 18.848 40.545 17.5323 38.9304 17.5323C37.3157 17.5323 36 18.848 36 20.4627C36 22.0774 37.3157 23.3931 38.9304 23.3931C40.545 23.3931 41.8607 22.0873 41.8607 20.4627ZM41.8607 37.995C41.8607 36.3803 40.545 35.0647 38.9304 35.0647C37.3157 35.0647 36 36.3803 36 37.995C36 39.6097 37.3157 40.9254 38.9304 40.9254C40.545 40.9254 41.8607 39.6197 41.8607 37.995ZM41.8607 55.5373C41.8607 53.9226 40.545 52.6069 38.9304 52.6069C37.3157 52.6069 36 53.9226 36 55.5373C36 57.152 37.3157 58.4677 38.9304 58.4677C40.545 58.4677 41.8607 57.152 41.8607 55.5373ZM41.8607 73.0696C41.8607 71.455 40.545 70.1393 38.9304 70.1393C37.3157 70.1393 36 71.455 36 73.0696C36 74.6843 37.3157 76 38.9304 76C40.545 76 41.8607 74.6843 41.8607 73.0696Z" fill="url(#paint0_linear_506_2578)"/>
<path d="M24.5696 5.86072C22.955 5.86072 21.6393 4.54505 21.6393 2.93036C21.6393 1.31567 22.955 0 24.5696 0C26.1843 0 27.5 1.31567 27.5 2.93036C27.5 4.55502 26.1843 5.86072 24.5696 5.86072ZM27.5 20.4627C27.5 18.848 26.1843 17.5323 24.5696 17.5323C22.955 17.5323 21.6393 18.848 21.6393 20.4627C21.6393 22.0774 22.955 23.3931 24.5696 23.3931C26.1843 23.3931 27.5 22.0873 27.5 20.4627ZM27.5 37.995C27.5 36.3803 26.1843 35.0647 24.5696 35.0647C22.955 35.0647 21.6393 36.3803 21.6393 37.995C21.6393 39.6097 22.955 40.9254 24.5696 40.9254C26.1843 40.9353 27.5 39.6197 27.5 37.995ZM27.5 55.5373C27.5 53.9226 26.1843 52.6069 24.5696 52.6069C22.955 52.6069 21.6393 53.9226 21.6393 55.5373C21.6393 57.152 22.955 58.4677 24.5696 58.4677C26.1843 58.4677 27.5 57.152 27.5 55.5373ZM27.5 73.0696C27.5 71.455 26.1843 70.1393 24.5696 70.1393C22.955 70.1393 21.6393 71.455 21.6393 73.0696C21.6393 74.6843 22.955 76 24.5696 76C26.1843 76 27.5 74.6843 27.5 73.0696ZM9.96765 2.93036C9.96765 1.31567 8.65197 0 7.03728 0C5.4226 0 4.10692 1.31567 4.10692 2.93036C4.10692 4.54505 5.4226 5.86072 7.03728 5.86072C8.65197 5.86072 9.96765 4.55502 9.96765 2.93036ZM9.96765 20.4627C9.96765 18.848 8.65197 17.5323 7.03728 17.5323C5.4226 17.5323 4.10692 18.848 4.10692 20.4627C4.10692 22.0774 5.4226 23.3931 7.03728 23.3931C8.65197 23.3931 9.96765 22.0873 9.96765 20.4627ZM9.96765 37.995C9.96765 36.3803 8.65197 35.0647 7.03728 35.0647C5.4226 35.0647 4.10692 36.3803 4.10692 37.995C4.10692 39.6097 5.4226 40.9254 7.03728 40.9254C8.65197 40.9353 9.96765 39.6197 9.96765 37.995ZM9.96765 55.5373C9.96765 53.9226 8.65197 52.6069 7.03728 52.6069C5.4226 52.6069 4.10692 53.9226 4.10692 55.5373C4.10692 57.152 5.4226 58.4677 7.03728 58.4677C8.65197 58.4677 9.96765 57.152 9.96765 55.5373ZM9.96765 73.0696C9.96765 71.455 8.65197 70.1393 7.03728 70.1393C5.4226 70.1393 4.10692 71.455 4.10692 73.0696C4.10692 74.6843 5.4226 76 7.03728 76C8.65197 76 9.96765 74.6843 9.96765 73.0696ZM-7.57462 2.93036C-7.57462 1.31567 -8.8903 0 -10.505 0C-12.1197 0 -13.4354 1.31567 -13.4354 2.93036C-13.4354 4.54505 -12.1197 5.86072 -10.505 5.86072C-8.88033 5.86072 -7.57462 4.55502 -7.57462 2.93036ZM-7.57462 20.4627C-7.57462 18.848 -8.8903 17.5323 -10.505 17.5323C-12.1197 17.5323 -13.4354 18.848 -13.4354 20.4627C-13.4354 22.0774 -12.1197 23.3931 -10.505 23.3931C-8.88033 23.3931 -7.57462 22.0873 -7.57462 20.4627ZM-7.57462 37.995C-7.57462 36.3803 -8.8903 35.0647 -10.505 35.0647C-12.1197 35.0647 -13.4354 36.3803 -13.4354 37.995C-13.4354 39.6097 -12.1197 40.9254 -10.505 40.9254C-8.88033 40.9353 -7.57462 39.6197 -7.57462 37.995ZM-7.57462 55.5373C-7.57462 53.9226 -8.8903 52.6069 -10.505 52.6069C-12.1197 52.6069 -13.4354 53.9226 -13.4354 55.5373C-13.4354 57.152 -12.1197 58.4677 -10.505 58.4677C-8.88033 58.4677 -7.57462 57.152 -7.57462 55.5373ZM-7.57462 73.0696C-7.57462 71.455 -8.8903 70.1393 -10.505 70.1393C-12.1197 70.1393 -13.4354 71.455 -13.4354 73.0696C-13.4354 74.6843 -12.1197 76 -10.505 76C-8.88033 76 -7.57462 74.6843 -7.57462 73.0696ZM-25.107 2.93036C-25.107 1.31567 -26.4227 0 -28.0373 0C-29.652 0 -30.9676 1.31567 -30.9676 2.93036C-30.9676 4.54505 -29.652 5.86072 -28.0373 5.86072C-26.4127 5.86072 -25.107 4.55502 -25.107 2.93036ZM-25.107 20.4627C-25.107 18.848 -26.4227 17.5323 -28.0373 17.5323C-29.652 17.5323 -30.9676 18.848 -30.9676 20.4627C-30.9676 22.0774 -29.652 23.3931 -28.0373 23.3931C-26.4127 23.3931 -25.107 22.0873 -25.107 20.4627ZM-25.107 37.995C-25.107 36.3803 -26.4227 35.0647 -28.0373 35.0647C-29.652 35.0647 -30.9676 36.3803 -30.9676 37.995C-30.9676 39.6097 -29.652 40.9254 -28.0373 40.9254C-26.4127 40.9353 -25.107 39.6197 -25.107 37.995ZM-25.107 55.5373C-25.107 53.9226 -26.4227 52.6069 -28.0373 52.6069C-29.652 52.6069 -30.9676 53.9226 -30.9676 55.5373C-30.9676 57.152 -29.652 58.4677 -28.0373 58.4677C-26.4127 58.4677 -25.107 57.152 -25.107 55.5373ZM-25.107 73.0696C-25.107 71.455 -26.4227 70.1393 -28.0373 70.1393C-29.652 70.1393 -30.9676 71.455 -30.9676 73.0696C-30.9676 74.6843 -29.652 76 -28.0373 76C-26.4127 76 -25.107 74.6843 -25.107 73.0696ZM-42.6393 2.93036C-42.6393 1.31567 -43.9549 0 -45.5696 0C-47.1843 0 -48.5 1.31567 -48.5 2.93036C-48.5 4.54505 -47.1843 5.86072 -45.5696 5.86072C-43.9549 5.86072 -42.6393 4.55502 -42.6393 2.93036ZM-42.6393 20.4627C-42.6393 18.848 -43.9549 17.5323 -45.5696 17.5323C-47.1843 17.5323 -48.5 18.848 -48.5 20.4627C-48.5 22.0774 -47.1843 23.3931 -45.5696 23.3931C-43.9549 23.3931 -42.6393 22.0873 -42.6393 20.4627ZM-42.6393 37.995C-42.6393 36.3803 -43.9549 35.0647 -45.5696 35.0647C-47.1843 35.0647 -48.5 36.3803 -48.5 37.995C-48.5 39.6097 -47.1843 40.9254 -45.5696 40.9254C-43.9549 40.9254 -42.6393 39.6197 -42.6393 37.995ZM-42.6393 55.5373C-42.6393 53.9226 -43.9549 52.6069 -45.5696 52.6069C-47.1843 52.6069 -48.5 53.9226 -48.5 55.5373C-48.5 57.152 -47.1843 58.4677 -45.5696 58.4677C-43.9549 58.4677 -42.6393 57.152 -42.6393 55.5373ZM-42.6393 73.0696C-42.6393 71.455 -43.9549 70.1393 -45.5696 70.1393C-47.1843 70.1393 -48.5 71.455 -48.5 73.0696C-48.5 74.6843 -47.1843 76 -45.5696 76C-43.9549 76 -42.6393 74.6843 -42.6393 73.0696Z" fill="url(#paint1_linear_506_2578)"/>
<defs>
<linearGradient id="paint0_linear_506_2578" x1="-1" y1="38" x2="112.003" y2="37.998" gradientUnits="userSpaceOnUse">
<stop stop-color="#A0F1FF" stop-opacity="0"/>
<stop offset="0.9887" stop-color="#89CDFF"/>
</linearGradient>
<linearGradient id="paint1_linear_506_2578" x1="-1" y1="38" x2="112.003" y2="37.998" gradientUnits="userSpaceOnUse">
<stop stop-color="#A0F1FF" stop-opacity="0"/>
<stop offset="0.9887" stop-color="#89CDFF"/>
</linearGradient>
</defs>
</svg>
